# Blender v2.78 (sub 0) OBJ File: ''
# www.blender.org
o Part2
v -0.611151 -0.785794 -0.037488
v -0.730355 -0.596098 -0.037488
v -0.730355 -0.895819 -0.037488
v -0.040441 0.464897 -0.037488
v 0.194269 0.492340 -0.037488
v -0.219276 0.691708 -0.037488
v -0.084830 0.826558 -0.037488
v 0.053425 0.463748 -0.037488
v 0.231042 0.495504 -0.037488
v 0.223032 0.313333 -0.037488
v 0.053092 0.277820 -0.037488
v 0.223032 0.143243 -0.037488
v 0.338105 0.324889 -0.037488
v 0.275854 0.407592 -0.037488
v 0.338105 0.490648 -0.037488
v 0.268912 0.485641 -0.037488
v 0.408326 0.324889 -0.037488
v 0.559144 0.297335 -0.037488
v 0.626775 0.495131 -0.037488
v 0.408326 0.490648 -0.037488
v 0.839008 0.430139 -0.037488
v 0.697338 0.297697 -0.037488
v 0.839250 0.385015 -0.037488
v 0.571465 -0.757403 -0.050031
v 0.705025 -0.756930 -0.050031
v 0.704561 -0.486576 -0.050031
v 0.570548 -0.486576 -0.050031
v 0.311216 -0.871056 -0.050031
v 0.457782 -0.871378 -0.050031
v 0.450387 -0.489729 -0.050031
v 0.311397 -0.494535 -0.050031
v 0.572805 0.722486 -0.037488
v 0.548233 0.822880 -0.037488
v 0.503209 0.817027 -0.037488
v 0.513143 0.722486 -0.037488
v 0.513143 0.637436 -0.050857
v 0.572805 0.637436 -0.050857
v 0.572805 0.722486 -0.050857
v 0.513143 0.722486 -0.050857
v 0.513143 0.637436 -0.037488
v 0.330831 0.571910 -0.037488
v 0.338105 0.324889 -0.050031
v 0.408326 0.324889 -0.050031
v 0.408326 0.490648 -0.050031
v 0.338105 0.490648 -0.050031
v -0.205071 -0.263523 -0.037488
v -0.343175 -0.263523 -0.037488
v -0.333846 -0.505174 -0.037488
v -0.192317 -0.505174 -0.037488
v -0.070745 -0.259140 -0.037488
v -0.068479 0.023979 -0.037488
v -0.209242 0.022971 -0.037488
v -0.068358 0.278102 -0.037488
v -0.166475 0.278596 -0.037488
v -0.484533 0.022064 -0.037488
v -0.510697 0.279734 -0.037488
v -0.600402 0.279734 -0.037488
v -0.621458 0.022064 -0.037488
v -0.072458 0.851996 -0.018699
v -0.489761 0.854636 -0.018699
v -0.475183 0.829207 -0.037488
v -0.737941 0.497761 -0.037488
v -0.767158 0.520227 -0.018699
v 0.301887 0.532045 -0.037488
v 0.282644 0.539127 -0.018699
v 0.242799 0.492915 -0.018699
v 0.309302 0.582730 -0.018699
v 0.353096 0.630787 -0.037488
v 0.333289 0.644216 -0.018699
v 0.381295 0.652356 -0.037488
v 0.364632 0.667247 -0.018699
v 0.411872 0.678047 -0.037488
v 0.389264 0.694197 -0.018699
v 0.421070 0.696050 -0.037488
v 0.399551 0.713036 -0.018699
v 0.434258 0.733760 -0.037488
v 0.411177 0.748116 -0.018699
v 0.442459 0.756115 -0.037488
v 0.419952 0.776003 -0.018699
v 0.456493 0.773011 -0.037488
v 0.433825 0.799285 -0.018699
v 0.477035 0.795689 -0.037488
v 0.466578 0.823062 -0.018699
v 0.498111 0.839786 -0.018699
v 0.547850 0.845569 -0.018699
v 0.589892 0.819233 -0.037488
v 0.593790 0.842284 -0.018699
v 0.627218 0.797553 -0.037488
v 0.634412 0.818699 -0.018699
v 0.640416 0.768457 -0.037488
v 0.657755 0.788193 -0.018699
v 0.654783 0.733206 -0.037488
v 0.673491 0.751562 -0.018699
v 0.659639 0.711988 -0.037488
v 0.678821 0.729317 -0.018699
v 0.687666 0.682873 -0.037488
v 0.700653 0.698811 -0.018699
v 0.711997 0.660648 -0.037488
v 0.727310 0.675508 -0.018699
v 0.731662 0.644488 -0.037488
v 0.749787 0.658421 -0.018699
v 0.751540 0.593490 -0.037488
v 0.771286 0.604925 -0.018699
v 0.769392 0.560395 -0.037488
v 0.791969 0.570006 -0.018699
v 0.806064 0.514907 -0.037488
v 0.831442 0.522635 -0.018699
v 0.838917 0.459930 -0.037488
v 0.866250 0.465401 -0.018699
v 0.704561 -0.486576 -0.037488
v 0.770198 -0.355565 -0.037488
v 0.704682 -0.243111 -0.037488
v 0.570548 -0.486576 -0.037488
v -0.166475 0.464726 -0.037488
v -0.336687 0.691708 -0.037488
v -0.384400 0.465119 -0.037488
v 0.066643 0.023102 -0.037488
v -0.040723 0.278102 -0.037488
v -0.480261 0.278022 -0.037488
v -0.344565 0.022971 -0.037488
v -0.384400 0.278022 -0.037488
v -0.481117 -0.507632 -0.037488
v -0.477138 -0.262565 -0.037488
v -0.059653 -0.498988 -0.037488
v 0.223435 -0.885291 -0.037488
v 0.073554 -0.773976 -0.037488
v -0.062122 -0.773110 -0.037488
v -0.017723 -0.885362 -0.037488
v -0.480523 -0.785129 -0.037488
v -0.502919 -0.888989 -0.037488
v -0.266617 -0.885362 -0.037488
v -0.331549 -0.783396 -0.037488
v -0.195430 -0.782691 -0.037488
v -0.730355 0.002701 -0.037488
v -0.696343 0.311661 -0.037488
v -0.730355 0.308870 -0.037488
v -0.700272 0.327992 -0.037488
v -0.730355 -0.299005 -0.037488
v -0.623311 -0.262082 -0.037488
v 0.766601 0.150627 -0.037488
v 0.697197 0.069818 -0.037488
v 0.704682 -0.098237 -0.037488
v 0.770198 -0.094661 -0.037488
v 0.770651 -0.886168 -0.037488
v 0.770198 -0.616469 -0.037488
v 0.705025 -0.756930 -0.037488
v 0.572805 0.637436 -0.037488
v 0.697388 0.189244 -0.037488
v 0.719976 0.167210 -0.037488
v 0.720731 0.183310 -0.037488
v 0.728922 0.152582 -0.037488
v 0.457782 -0.871378 -0.037488
v 0.571465 -0.757403 -0.037488
v 0.450387 -0.489729 -0.037488
v 0.414370 -0.094651 -0.037488
v 0.414370 -0.250395 -0.037488
v 0.562871 -0.243111 -0.037488
v 0.562871 -0.098237 -0.037488
v 0.407097 -0.030536 -0.037488
v 0.740115 0.182584 -0.037488
v -0.068821 0.464232 -0.037488
v -0.480261 0.465119 -0.037488
v -0.510697 0.463396 -0.037488
v -0.600402 0.463396 -0.037488
v -0.705168 0.359173 -0.037488
v -0.739563 0.383705 -0.037488
v -0.739331 0.490527 -0.037488
v -0.070745 -0.259140 -0.051472
v 0.069444 -0.260389 -0.051472
v 0.066643 0.023102 -0.051472
v -0.068479 0.023979 -0.051472
v 0.562871 -0.243111 -0.050031
v 0.704682 -0.243111 -0.050031
v 0.704682 -0.098237 -0.050031
v 0.562871 -0.098237 -0.050031
v 0.414370 -0.094651 -0.050031
v 0.342820 -0.094651 -0.050031
v 0.342820 -0.250395 -0.050031
v 0.414370 -0.250395 -0.050031
v 0.339838 -0.030536 -0.037488
v 0.342820 -0.094651 -0.037488
v 0.339838 0.127597 -0.037488
v 0.407097 0.127597 -0.037488
v 0.407097 0.127597 -0.050031
v 0.339838 0.127597 -0.050031
v 0.339838 -0.030536 -0.050031
v 0.407097 -0.030536 -0.050031
v -0.336687 0.691708 -0.051300
v -0.219276 0.691708 -0.051300
v -0.219276 0.773948 -0.051300
v -0.336687 0.773948 -0.051300
v -0.219276 0.773948 -0.037488
v -0.336687 0.773948 -0.037488
v -0.480261 0.278022 -0.051472
v -0.384400 0.278022 -0.051472
v -0.384400 0.465119 -0.051472
v -0.480261 0.465119 -0.051472
v -0.600402 0.279734 -0.051472
v -0.510697 0.279734 -0.051472
v -0.510697 0.463396 -0.051472
v -0.600402 0.463396 -0.051472
v -0.166475 0.278596 -0.051472
v -0.068358 0.278102 -0.051472
v -0.068821 0.464232 -0.051472
v -0.166475 0.464726 -0.051472
v -0.040723 0.278102 -0.051472
v 0.053092 0.277820 -0.051472
v 0.053425 0.463748 -0.051472
v -0.040441 0.464897 -0.051472
v -0.611302 -0.507632 -0.037488
v 0.223032 -0.196969 -0.037488
v 0.311397 -0.494535 -0.037488
v 0.342820 -0.250395 -0.037488
v 0.697197 0.069818 -0.050857
v 0.697338 0.297697 -0.050857
v 0.559144 0.297335 -0.050857
v 0.559144 0.069496 -0.050857
v -0.059653 -0.498988 -0.051472
v -0.062122 -0.773110 -0.051472
v 0.073554 -0.773976 -0.051472
v 0.073554 -0.496610 -0.051472
v -0.333846 -0.505174 -0.051472
v -0.331549 -0.783396 -0.051472
v -0.195430 -0.782691 -0.051472
v -0.192317 -0.505174 -0.051472
v -0.621458 0.022064 -0.051472
v -0.623311 -0.262082 -0.051472
v -0.477138 -0.262565 -0.051472
v -0.484533 0.022064 -0.051472
v 0.311216 -0.871056 -0.037488
v 0.223032 -0.537181 -0.037488
v 0.069444 -0.260389 -0.037488
v 0.073554 -0.496610 -0.037488
v 0.559144 0.069496 -0.037488
v -0.611302 -0.507632 -0.051472
v -0.611151 -0.785794 -0.051472
v -0.480523 -0.785129 -0.051472
v -0.481117 -0.507632 -0.051472
v -0.344565 0.022971 -0.051472
v -0.343175 -0.263523 -0.051472
v -0.205071 -0.263523 -0.051472
v -0.209242 0.022971 -0.051472
v 0.728177 0.165024 -0.037488
v 0.231042 0.495504 -0.018064
vt 0.5809 0.1659
vt 0.5629 0.2547
vt 0.5642 0.1102
vt 0.6479 0.7442
vt 0.6789 0.7609
vt 0.6234 0.8316
vt 0.6378 0.9044
vt 0.6606 0.7467
vt 0.6838 0.7634
vt 0.6859 0.6883
vt 0.6626 0.6656
vt 0.6881 0.6113
vt 0.7001 0.6990
vt 0.6919 0.7315
vt 0.6979 0.7713
vt 0.6890 0.7681
vt 0.7098 0.7007
vt 0.7318 0.6909
vt 0.7389 0.7795
vt 0.7075 0.7732
vt 0.7699 0.7741
vt 0.7516 0.6943
vt 0.7717 0.7312
vt 0.7498 0.1657
vt 0.7709 0.1659
vt 0.7653 0.3112
vt 0.7446 0.3101
vt 0.7114 0.1161
vt 0.7327 0.1159
vt 0.7263 0.3106
vt 0.7057 0.3096
vt 0.7277 0.8799
vt 0.7223 0.9347
vt 0.7162 0.9308
vt 0.7194 0.8780
vt 0.7200 0.8386
vt 0.7283 0.8404
vt 0.7270 0.8769
vt 0.7188 0.8750
vt 0.7206 0.8415
vt 0.6959 0.8226
vt 0.6996 0.6969
vt 0.7093 0.6985
vt 0.7069 0.7708
vt 0.6974 0.7689
vt 0.6337 0.4189
vt 0.6149 0.4172
vt 0.6168 0.3024
vt 0.6360 0.3034
vt 0.6524 0.4206
vt 0.6495 0.5488
vt 0.6312 0.5464
vt 0.6460 0.6628
vt 0.6328 0.6606
vt 0.5949 0.5417
vt 0.5887 0.6540
vt 0.5770 0.6521
vt 0.5766 0.5394
vt 0.6396 0.9195
vt 0.5869 0.9064
vt 0.5888 0.8924
vt 0.5585 0.7398
vt 0.5544 0.7458
vt 0.6932 0.8042
vt 0.6904 0.8110
vt 0.6858 0.7730
vt 0.6935 0.8304
vt 0.6982 0.8481
vt 0.6960 0.8572
vt 0.7018 0.8581
vt 0.7000 0.8678
vt 0.7045 0.8696
vt 0.7031 0.8800
vt 0.7056 0.8774
vt 0.7042 0.8882
vt 0.7065 0.8918
vt 0.7053 0.9034
vt 0.7073 0.9031
vt 0.7062 0.9153
vt 0.7087 0.9128
vt 0.7077 0.9255
vt 0.7125 0.9232
vt 0.7119 0.9365
vt 0.7160 0.9445
vt 0.7228 0.9488
vt 0.7281 0.9346
vt 0.7292 0.9488
vt 0.7336 0.9266
vt 0.7352 0.9404
vt 0.7370 0.9152
vt 0.7389 0.9285
vt 0.7395 0.9010
vt 0.7417 0.9136
vt 0.7405 0.8921
vt 0.7428 0.9042
vt 0.7438 0.8805
vt 0.7464 0.8921
vt 0.7475 0.8718
vt 0.7505 0.8830
vt 0.7524 0.8620
vt 0.7560 0.8727
vt 0.7552 0.8427
vt 0.7590 0.8524
vt 0.7589 0.8270
vt 0.7631 0.8359
vt 0.7643 0.8082
vt 0.7690 0.8162
vt 0.7699 0.7852
vt 0.7752 0.7920
vt 0.7661 0.3119
vt 0.7727 0.3806
vt 0.7621 0.4348
vt 0.7454 0.3108
vt 0.6312 0.7410
vt 0.6081 0.8282
vt 0.6039 0.7358
vt 0.6684 0.5513
vt 0.6498 0.6634
vt 0.5926 0.6539
vt 0.6128 0.5440
vt 0.6052 0.6560
vt 0.5984 0.3014
vt 0.5967 0.4156
vt 0.6550 0.3044
vt 0.7024 0.1087
vt 0.6781 0.1666
vt 0.6581 0.1665
vt 0.6667 0.1091
vt 0.6003 0.1660
vt 0.5976 0.1098
vt 0.6318 0.1095
vt 0.6191 0.1662
vt 0.6386 0.1663
vt 0.5605 0.5269
vt 0.5636 0.6570
vt 0.5593 0.6551
vt 0.5648 0.6693
vt 0.5617 0.3935
vt 0.5781 0.4140
vt 0.7626 0.6332
vt 0.7556 0.5899
vt 0.7592 0.5088
vt 0.7676 0.5092
vt 0.7835 0.1079
vt 0.7780 0.2469
vt 0.7718 0.1660
vt 0.7290 0.8433
vt 0.7536 0.6425
vt 0.7572 0.6401
vt 0.7571 0.6476
vt 0.7588 0.6335
vt 0.7334 0.1158
vt 0.7505 0.1658
vt 0.7270 0.3113
vt 0.7159 0.5046
vt 0.7183 0.4309
vt 0.7408 0.4329
vt 0.7382 0.5065
vt 0.7149 0.5373
vt 0.7599 0.6477
vt 0.6442 0.7435
vt 0.5915 0.7334
vt 0.5877 0.7319
vt 0.5761 0.7297
vt 0.5641 0.6826
vt 0.5596 0.6923
vt 0.5583 0.7367
vt 0.6520 0.4193
vt 0.6712 0.4210
vt 0.6679 0.5495
vt 0.6492 0.5471
vt 0.7401 0.4317
vt 0.7613 0.4336
vt 0.7584 0.5074
vt 0.7375 0.5050
vt 0.7153 0.5032
vt 0.7052 0.5020
vt 0.7074 0.4288
vt 0.7177 0.4297
vt 0.7054 0.5361
vt 0.7058 0.5035
vt 0.7031 0.6087
vt 0.7125 0.6101
vt 0.7120 0.6082
vt 0.7026 0.6069
vt 0.7048 0.5345
vt 0.7143 0.5357
vt 0.6079 0.8255
vt 0.6232 0.8288
vt 0.6225 0.8646
vt 0.6073 0.8611
vt 0.6227 0.8675
vt 0.6075 0.8640
vt 0.5925 0.6518
vt 0.6051 0.6539
vt 0.6038 0.7333
vt 0.5914 0.7310
vt 0.5770 0.6500
vt 0.5886 0.6519
vt 0.5876 0.7295
vt 0.5761 0.7273
vt 0.6325 0.6584
vt 0.6457 0.6606
vt 0.6439 0.7410
vt 0.6309 0.7385
vt 0.6494 0.6612
vt 0.6622 0.6633
vt 0.6602 0.7441
vt 0.6476 0.7417
vt 0.5794 0.3005
vt 0.6926 0.4519
vt 0.7062 0.3102
vt 0.7080 0.4299
vt 0.7548 0.5880
vt 0.7509 0.6920
vt 0.7311 0.6887
vt 0.7348 0.5852
vt 0.6546 0.3036
vt 0.6577 0.1663
vt 0.6776 0.1665
vt 0.6741 0.3046
vt 0.6166 0.3017
vt 0.6189 0.1660
vt 0.6383 0.1662
vt 0.6356 0.3027
vt 0.5766 0.5377
vt 0.5780 0.4128
vt 0.5966 0.4144
vt 0.5948 0.5400
vt 0.7120 0.1160
vt 0.6974 0.2845
vt 0.6716 0.4223
vt 0.6746 0.3054
vt 0.7355 0.5871
vt 0.5793 0.2998
vt 0.5809 0.1657
vt 0.6001 0.1659
vt 0.5982 0.3007
vt 0.6126 0.5423
vt 0.6147 0.4160
vt 0.6334 0.4177
vt 0.6309 0.5447
vt 0.7585 0.6393
vt 0.6845 0.7671
vn 0.0000 0.0000 1.0000
vn -0.0039 -0.5943 0.8042
vn 0.3924 -0.3183 0.8630
vn 0.5070 -0.3986 0.7642
vn 0.5415 -0.3607 0.7594
vn 0.5808 -0.2232 0.7829
vn 0.3866 -0.5162 0.7642
vn 0.4169 -0.4373 0.7969
vn 0.5018 -0.2654 0.8233
vn 0.5521 -0.1882 0.8123
vn 0.5401 -0.1825 0.8216
vn 0.4186 -0.2907 0.8604
vn 0.3397 -0.3898 0.8559
vn 0.3291 -0.4989 0.8018
vn 0.0773 -0.6298 0.7729
vn -0.0500 -0.6317 0.7736
vn -0.3270 -0.5632 0.7589
vn -0.5663 -0.3472 0.7475
vn -0.5689 -0.2382 0.7872
vn -0.6238 -0.1462 0.7678
vn -0.4852 -0.4058 0.7746
vn -0.4452 -0.4985 0.7438
vn -0.4059 -0.5145 0.7554
vn -0.5995 -0.2374 0.7644
vn -0.5419 -0.3070 0.7823
vn -0.4762 -0.3905 0.7879
vn -0.5019 -0.3026 0.8103
vn -0.4147 -0.3463 0.8415
vn -0.4480 -0.3799 0.8093
s off
f 1/1/1 2/2/1 3/3/1
f 4/4/1 5/5/1 6/6/1
f 5/5/1 7/7/1 6/6/1
f 5/5/1 4/4/1 8/8/1
f 9/9/1 5/5/1 8/8/1
f 10/10/1 9/9/1 11/11/1
f 12/12/1 10/10/1 11/11/1
f 10/10/1 12/12/1 13/13/1 14/14/1
f 9/9/1 10/10/1 14/14/1
f 14/14/1 13/13/1 15/15/1
f 9/9/1 14/14/1 16/16/1
f 14/14/1 15/15/1 16/16/1
f 17/17/1 18/18/1 19/19/1 20/20/1
f 21/21/1 19/19/1 22/22/1 23/23/1
f 18/18/1 22/22/1 19/19/1
f 24/24/1 25/25/1 26/26/1 27/27/1
f 28/28/1 29/29/1 30/30/1 31/31/1
f 32/32/1 33/33/1 34/34/1 35/35/1
f 36/36/1 37/37/1 38/38/1 39/39/1
f 20/20/1 40/40/1 41/41/1 15/15/1
f 42/42/1 43/43/1 44/44/1 45/45/1
f 46/46/1 47/47/1 48/48/1 49/49/1
f 50/50/1 51/51/1 52/52/1 46/46/1
f 53/53/1 54/54/1 52/52/1 51/51/1
f 55/55/1 56/56/1 57/57/1 58/58/1
f 7/7/2 59/59/2 60/60/2 61/61/2
f 62/62/3 61/61/3 60/60/3 63/63/3
f 64/64/4 65/65/4 66/66/4 16/16/4
f 41/41/5 67/67/5 65/65/5 64/64/5
f 41/41/6 68/68/6 69/69/6 67/67/6
f 70/70/7 71/71/7 69/69/7 68/68/7
f 70/70/8 72/72/8 73/73/8 71/71/8
f 72/72/9 74/74/9 75/75/9 73/73/9
f 74/74/10 76/76/10 77/77/10 75/75/10
f 76/76/11 78/78/11 79/79/11 77/77/11
f 78/78/12 80/80/12 81/81/12 79/79/12
f 80/80/13 82/82/13 83/83/13 81/81/13
f 82/82/14 34/34/14 84/84/14 83/83/14
f 34/34/15 33/33/15 85/85/15 84/84/15
f 86/86/16 87/87/16 85/85/16 33/33/16
f 88/88/17 89/89/17 87/87/17 86/86/17
f 90/90/18 91/91/18 89/89/18 88/88/18
f 92/92/19 93/93/19 91/91/19 90/90/19
f 94/94/20 95/95/20 93/93/20 92/92/20
f 96/96/21 97/97/21 95/95/21 94/94/21
f 96/96/22 98/98/22 99/99/22 97/97/22
f 98/98/23 100/100/23 101/101/23 99/99/23
f 102/102/24 103/103/24 101/101/24 100/100/24
f 102/102/25 104/104/25 105/105/25 103/103/25
f 104/104/26 106/106/26 107/107/26 105/105/26
f 106/106/27 108/108/27 109/109/27 107/107/27
f 110/110/1 111/111/1 112/112/1 113/113/1
f 114/114/1 6/6/1 115/115/1 116/116/1
f 117/117/1 11/11/1 118/118/1 51/51/1
f 119/119/1 55/55/1 120/120/1 121/121/1
f 122/122/1 48/48/1 47/47/1 123/123/1
f 50/50/1 46/46/1 49/49/1 124/124/1
f 125/125/1 126/126/1 127/127/1 128/128/1
f 129/129/1 130/130/1 131/131/1 132/132/1
f 127/127/1 133/133/1 131/131/1 128/128/1
f 3/3/1 130/130/1 129/129/1 1/1/1
f 134/134/1 58/58/1 135/135/1 136/136/1
f 58/58/1 57/57/1 137/137/1 135/135/1
f 138/138/1 139/139/1 58/58/1 134/134/1
f 140/140/1 141/141/1 142/142/1 143/143/1
f 144/144/1 145/145/1 110/110/1 146/146/1
f 142/142/1 112/112/1 111/111/1 143/143/1
f 92/92/1 90/90/1 32/32/1 94/94/1
f 108/108/1 106/106/1 19/19/1 21/21/1
f 16/16/1 15/15/1 41/41/1 64/64/1
f 20/20/1 19/19/1 147/147/1 40/40/1
f 22/22/1 148/148/1 149/149/1 150/150/1
f 149/149/1 148/148/1 141/141/1 151/151/1
f 152/152/1 144/144/1 146/146/1 153/153/1
f 152/152/1 153/153/1 113/113/1 154/154/1
f 155/155/1 156/156/1 157/157/1 158/158/1
f 141/141/1 159/159/1 155/155/1 158/158/1
f 23/23/1 22/22/1 150/150/1 160/160/1
f 74/74/1 72/72/1 40/40/1 35/35/1
f 94/94/1 32/32/1 147/147/1 96/96/1
f 127/127/1 124/124/1 49/49/1 133/133/1
f 132/132/1 48/48/1 122/122/1 129/129/1
f 47/47/1 120/120/1 55/55/1 123/123/1
f 118/118/1 4/4/1 161/161/1 53/53/1
f 54/54/1 114/114/1 116/116/1 121/121/1
f 56/56/1 119/119/1 162/162/1 163/163/1
f 164/164/1 165/165/1 137/137/1 57/57/1
f 166/166/1 165/165/1 164/164/1 167/167/1
f 168/168/1 169/169/1 170/170/1 171/171/1
f 172/172/1 173/173/1 174/174/1 175/175/1
f 176/176/1 177/177/1 178/178/1 179/179/1
f 159/159/1 180/180/1 181/181/1 155/155/1
f 13/13/1 182/182/1 183/183/1 17/17/1
f 184/184/1 185/185/1 186/186/1 187/187/1
f 188/188/1 189/189/1 190/190/1 191/191/1
f 192/192/1 7/7/1 61/61/1 193/193/1
f 194/194/1 195/195/1 196/196/1 197/197/1
f 198/198/1 199/199/1 200/200/1 201/201/1
f 202/202/1 203/203/1 204/204/1 205/205/1
f 206/206/1 207/207/1 208/208/1 209/209/1
f 167/167/1 164/164/1 61/61/1 62/62/1
f 164/164/1 163/163/1 115/115/1 61/61/1
f 2/2/1 210/210/1 139/139/1 138/138/1
f 180/180/1 182/182/1 13/13/1 12/12/1
f 181/181/1 211/211/1 212/212/1 213/213/1
f 214/214/1 215/215/1 216/216/1 217/217/1
f 218/218/1 219/219/1 220/220/1 221/221/1
f 222/222/1 223/223/1 224/224/1 225/225/1
f 226/226/1 227/227/1 228/228/1 229/229/1
f 33/33/1 32/32/1 90/90/1 86/86/1
f 156/156/1 212/212/1 154/154/1 157/157/1
f 98/98/1 147/147/1 19/19/1 102/102/1
f 82/82/1 78/78/1 74/74/1 35/35/1
f 230/230/1 231/231/1 126/126/1 125/125/1
f 212/212/1 211/211/1 232/232/1 231/231/1
f 180/180/1 12/12/1 117/117/1 211/211/1
f 124/124/1 233/233/1 232/232/1 50/50/1
f 114/114/1 161/161/1 4/4/1 6/6/1
f 157/157/1 154/154/1 113/113/1 112/112/1
f 17/17/1 183/183/1 234/234/1 18/18/1
f 72/72/1 70/70/1 41/41/1 40/40/1
f 235/235/1 236/236/1 237/237/1 238/238/1
f 123/123/1 139/139/1 210/210/1 122/122/1
f 239/239/1 240/240/1 241/241/1 242/242/1
f 121/121/1 120/120/1 52/52/1 54/54/1
f 118/118/1 53/53/1 51/51/1
f 55/55/1 119/119/1 56/56/1
f 210/210/1 2/2/1 1/1/1
f 8/8/1 11/11/1 9/9/1
f 233/233/1 231/231/1 232/232/1
f 117/117/1 232/232/1 211/211/1
f 231/231/1 233/233/1 126/126/1
f 212/212/1 231/231/1 230/230/1
f 74/74/1 78/78/1 76/76/1
f 78/78/1 82/82/1 80/80/1
f 90/90/1 88/88/1 86/86/1
f 102/102/1 19/19/1 104/104/1
f 183/183/1 159/159/1 234/234/1
f 70/70/1 68/68/1 41/41/1
f 98/98/1 102/102/1 100/100/1
f 125/125/1 144/144/1 152/152/1
f 230/230/1 125/125/1 152/152/1
f 115/115/1 163/163/1 162/162/1
f 180/180/1 211/211/1 181/181/1
f 116/116/1 115/115/1 162/162/1
f 115/115/1 193/193/1 61/61/1
f 212/212/1 156/156/1 213/213/1
f 158/158/1 142/142/1 141/141/1
f 19/19/1 106/106/1 104/104/1
f 7/7/1 192/192/1 6/6/1
f 34/34/1 82/82/1 35/35/1
f 110/110/1 145/145/1 111/111/1
f 140/140/1 151/151/1 141/141/1
f 149/149/1 151/151/1 243/243/1
f 12/12/1 11/11/1 117/117/1
f 132/132/1 131/131/1 133/133/1
f 159/159/1 141/141/1 234/234/1
f 147/147/1 98/98/1 96/96/1
f 5/5/28 244/244/28 7/7/28
f 244/244/29 59/59/29 7/7/29
