# Blender v2.78 (sub 0) OBJ File: ''
# www.blender.org
o Plane.001
v 0.642703 0.670570 0.186286
v 0.651931 0.716878 0.186286
v 0.591205 0.669680 0.212407
v 0.532757 0.730895 0.238537
v 0.533610 0.673772 0.238537
v 0.538600 0.775679 0.246930
v 0.657710 0.761263 0.192564
v 0.720903 0.670570 0.110472
v 0.721992 0.716878 0.110472
v 0.678523 0.670570 0.145793
v 0.737979 0.763177 0.113675
v 0.129510 0.672556 0.198807
v 0.129410 0.732265 0.198807
v 0.094715 0.664790 0.162823
v 0.038381 0.721886 0.126831
v 0.039297 0.659355 0.126831
v 0.025334 0.761807 0.130696
v 0.119439 0.776786 0.205593
v 0.255152 0.679542 0.245315
v 0.253973 0.737056 0.245315
v 0.191823 0.675632 0.223167
v 0.248302 0.780406 0.253979
v 0.395529 0.674498 0.259260
v 0.394531 0.737283 0.259260
v 0.330122 0.674280 0.252292
v 0.394767 0.782021 0.268496
v 0.463014 0.674498 0.248390
v -0.027806 0.749558 0.040701
v 0.005718 0.720071 0.040338
v 0.006635 0.659355 0.040338
v 0.744366 0.717731 0.022628
v 0.758928 0.763177 0.022274
v 0.743976 0.668002 0.022628
v 0.667763 0.422569 0.192564
v 0.667763 0.449625 0.192564
v 0.541912 0.449806 0.246930
v 0.542357 0.421435 0.246930
v 0.741589 0.422887 0.113675
v 0.741190 0.450904 0.113675
v 0.122406 0.419385 0.205593
v 0.122406 0.447356 0.205593
v 0.028664 0.439771 0.130705
v 0.028664 0.411645 0.130705
v 0.252349 0.419929 0.253988
v 0.252349 0.448273 0.253988
v 0.398958 0.419385 0.268505
v 0.398958 0.446440 0.268505
v -0.006131 0.446721 0.039785
v -0.006031 0.418278 0.039885
v 0.762548 0.422887 0.022274
v 0.762140 0.450904 0.022274
v 0.747315 0.450668 0.022628
v 0.720232 0.450587 0.110472
v 0.041774 0.439771 0.126831
v 0.008694 0.439790 0.039549
v 0.132368 0.447538 0.198807
v 0.256976 0.448273 0.245315
v 0.398450 0.446440 0.259260
v 0.535806 0.449625 0.238537
v 0.657964 0.449625 0.186286
v 0.747705 0.422651 0.022628
v 0.008930 0.411382 0.039549
v 0.726292 0.419385 0.110472
v 0.041774 0.411645 0.126831
v 0.398450 0.419385 0.259260
v 0.536105 0.421317 0.238537
v 0.256976 0.419929 0.245315
v 0.132595 0.419385 0.198807
v 0.657964 0.422569 0.186286
v 0.657964 0.365664 0.186286
v 0.513740 0.370445 0.238537
v 0.724814 0.365664 0.110472
v 0.131461 0.365664 0.198807
v 0.042491 0.365664 0.126831
v 0.294538 0.369075 0.245315
v 0.400138 0.371180 0.259260
v 0.009375 0.365664 0.039694
v 0.748294 0.365664 0.022628
v 0.534590 0.568036 0.238537
v 0.591868 0.567873 0.212407
v 0.646541 0.567873 0.186286
v 0.678523 0.567873 0.145793
v 0.720903 0.567873 0.110472
v 0.040668 0.558899 0.126831
v 0.095359 0.563227 0.162823
v 0.130463 0.570540 0.198807
v 0.191823 0.568635 0.223167
v 0.255941 0.570431 0.245315
v 0.330603 0.569379 0.252292
v 0.396509 0.569587 0.259260
v 0.464166 0.569796 0.248390
v 0.007406 0.558899 0.039123
v 0.744892 0.566131 0.022628
v 0.416224 -0.727110 0.243191
v 0.521307 -0.725441 0.223930
v 0.519602 -0.560658 0.223930
v 0.413239 -0.563824 0.243191
v 0.308465 -0.726257 0.230226
v 0.306723 -0.567463 0.230226
v 0.404901 -0.303258 0.243191
v 0.511109 -0.302541 0.223930
v 0.508859 -0.033592 0.223930
v 0.402388 -0.034499 0.243191
v 0.297269 -0.304220 0.230226
v 0.295309 -0.035043 0.230226
v 0.399394 0.251889 0.243191
v 0.506128 0.251889 0.223930
v 0.505747 0.370445 0.223930
v 0.399394 0.371180 0.243191
v 0.302014 0.250201 0.230226
v 0.302014 0.369492 0.230226
v 0.395665 0.569587 0.243191
v 0.458586 0.569796 0.233084
v 0.457561 0.674498 0.233084
v 0.394694 0.674498 0.243191
v 0.333951 0.569379 0.236704
v 0.333461 0.674280 0.236704
v 0.145968 0.570431 0.187003
v 0.202638 0.568635 0.209649
v 0.202638 0.675632 0.209649
v 0.145968 0.672556 0.187003
v 0.110765 0.563227 0.153551
v 0.110121 0.665343 0.153551
v 0.628368 0.567873 0.175362
v 0.658944 0.567873 0.137727
v 0.658944 0.670570 0.137727
v 0.625655 0.670570 0.175362
v 0.577387 0.567873 0.199641
v 0.576707 0.669680 0.199641
v 0.009375 0.246636 0.040338
v 0.042509 0.246636 0.126831
v 0.133883 0.246636 0.198807
v 0.294973 0.250628 0.245315
v 0.514122 0.251889 0.238537
v 0.657964 0.240874 0.186286
v 0.724814 0.240874 0.110472
v 0.749501 0.240874 0.022628
v 0.009375 -0.036150 0.040338
v 0.044115 -0.036150 0.126831
v 0.136306 -0.036150 0.198807
v 0.288695 -0.035043 0.245315
v 0.403132 -0.034499 0.259260
v 0.400138 0.251889 0.259260
v 0.516843 -0.033592 0.238537
v 0.657964 -0.036150 0.186286
v 0.729886 -0.036150 0.110472
v 0.750390 -0.036150 0.022628
v 0.009375 -0.303258 0.040338
v 0.047327 -0.303258 0.126831
v 0.139953 -0.303258 0.198807
v 0.290655 -0.304220 0.245315
v 0.519103 -0.302541 0.238537
v 0.657964 -0.303258 0.186286
v 0.731655 -0.303258 0.110472
v 0.758747 -0.303258 0.022628
v 0.014964 -0.564913 0.040338
v 0.049069 -0.564913 0.126831
v 0.141169 -0.564913 0.198807
v 0.300118 -0.567463 0.245315
v 0.413983 -0.563824 0.259260
v 0.405645 -0.303258 0.259260
v 0.527595 -0.560658 0.238537
v 0.657964 -0.556647 0.186286
v 0.731655 -0.556647 0.110472
v 0.758747 -0.556647 0.022628
v 0.016352 -0.724352 0.040338
v 0.050467 -0.724352 0.126831
v 0.143591 -0.724352 0.198807
v 0.301851 -0.726257 0.245315
v 0.529301 -0.725441 0.238537
v 0.657964 -0.724352 0.186286
v 0.731655 -0.724352 0.110472
v 0.758747 -0.724352 0.022628
v 0.017876 -0.863604 0.040338
v 0.050584 -0.863604 0.126831
v 0.143591 -0.863604 0.198807
v 0.305280 -0.863604 0.245315
v 0.420398 -0.863604 0.259260
v 0.416968 -0.727110 0.259260
v 0.534001 -0.862361 0.238537
v 0.657964 -0.863604 0.186286
v 0.731655 -0.863604 0.110472
v 0.759754 -0.863604 0.022628
v -0.352155 -0.592041 0.031102
v -0.352155 -0.294140 0.031102
v -0.395624 -0.294140 0.031102
v -0.395624 -0.592041 0.031102
v -0.373540 -0.024156 0.031102
v -0.417009 -0.024156 0.031102
v -0.588542 -0.024156 0.031102
v -0.566658 -0.298459 0.031102
v -0.819539 0.415601 0.047397
v -0.787820 0.412670 0.031102
v 0.008468 0.406882 0.031102
v -0.008054 0.416508 0.047397
v -0.181130 -0.294140 0.031102
v -0.202379 -0.024156 0.031102
v -0.588542 0.273745 0.031102
v -0.417009 0.273745 0.031102
v -0.758469 -0.713519 0.031102
v -0.379836 -0.710643 0.031102
v -0.566658 -0.596360 0.031102
v 0.014719 -0.711106 0.031102
v -0.181130 -0.592041 0.031102
v -0.143187 0.726776 -0.099793
v -0.111005 0.726776 -0.099793
v -0.111005 0.869612 -0.099793
v -0.127101 0.869612 -0.099793
v -0.373540 0.273746 0.031102
v -0.819539 0.446458 0.047397
v -0.013770 0.446721 0.047397
v -0.202379 0.273746 0.031102
v -0.588542 -0.024156 0.018137
v -0.417009 -0.024156 0.018137
v -0.417009 0.273745 0.018137
v -0.588542 0.273745 0.018137
v -0.373540 -0.024156 0.018137
v -0.202379 -0.024156 0.018137
v -0.202379 0.273746 0.018137
v -0.373540 0.273746 0.018137
v -0.566658 -0.596360 0.018137
v -0.395624 -0.592041 0.018137
v -0.395624 -0.294140 0.018137
v -0.566658 -0.298459 0.018137
v -0.352155 -0.592041 0.018137
v -0.181130 -0.592041 0.018137
v -0.181130 -0.294140 0.018137
v -0.352155 -0.294140 0.018137
v -0.386342 0.731358 -0.058221
v -0.386342 0.572391 -0.058221
v -0.100707 0.572391 -0.058221
v -0.100707 0.731358 -0.058221
v -0.143187 0.869612 -0.099793
vt 0.9343 0.8249
vt 0.9316 0.8642
vt 0.9310 0.8301
vt 0.9251 0.8753
vt 0.9278 0.8354
vt 0.9256 0.8977
vt 0.9324 0.8859
vt 0.9328 0.8081
vt 0.9302 0.8466
vt 0.9335 0.8158
vt 0.9309 0.8670
vt 0.8765 0.8161
vt 0.8743 0.8550
vt 0.8679 0.8066
vt 0.8574 0.8351
vt 0.8595 0.7973
vt 0.8553 0.8548
vt 0.8727 0.8760
vt 0.8959 0.8305
vt 0.8934 0.8701
vt 0.8866 0.8236
vt 0.8926 0.8922
vt 0.9141 0.8374
vt 0.9115 0.8774
vt 0.9050 0.8339
vt 0.9115 0.9000
vt 0.9213 0.8364
vt 0.8429 0.8324
vt 0.8454 0.8142
vt 0.8474 0.7773
vt 0.9217 0.8258
vt 0.9220 0.8448
vt 0.9242 0.7884
vt 0.9448 0.7039
vt 0.9439 0.7171
vt 0.9371 0.7265
vt 0.9380 0.7131
vt 0.9430 0.6892
vt 0.9421 0.7022
vt 0.8833 0.6962
vt 0.8825 0.7093
vt 0.8643 0.6925
vt 0.8650 0.6797
vt 0.9040 0.7088
vt 0.9032 0.7221
vt 0.9235 0.7148
vt 0.9226 0.7283
vt 0.8513 0.6748
vt 0.8520 0.6624
vt 0.9335 0.6720
vt 0.9326 0.6846
vt 0.9310 0.6844
vt 0.9400 0.7012
vt 0.8654 0.6920
vt 0.8529 0.6749
vt 0.8829 0.7081
vt 0.9027 0.7203
vt 0.9213 0.7263
vt 0.9352 0.7245
vt 0.9417 0.7156
vt 0.9319 0.6718
vt 0.8536 0.6626
vt 0.9409 0.6883
vt 0.8661 0.6792
vt 0.9222 0.7128
vt 0.9361 0.7111
vt 0.9035 0.7070
vt 0.8836 0.6950
vt 0.9426 0.7023
vt 0.9444 0.6759
vt 0.9379 0.6844
vt 0.9426 0.6625
vt 0.8852 0.6689
vt 0.8675 0.6538
vt 0.9052 0.6804
vt 0.9239 0.6860
vt 0.8549 0.6379
vt 0.9335 0.6468
vt 0.9311 0.7850
vt 0.9344 0.7800
vt 0.9377 0.7751
vt 0.9368 0.7667
vt 0.9361 0.7595
vt 0.8622 0.7493
vt 0.8707 0.7580
vt 0.8794 0.7669
vt 0.8896 0.7739
vt 0.8990 0.7804
vt 0.9081 0.7836
vt 0.9174 0.7868
vt 0.9246 0.7859
vt 0.8499 0.7307
vt 0.9273 0.7410
vt 0.9604 0.0812
vt 0.9743 0.0814
vt 0.9671 0.1893
vt 0.9534 0.1895
vt 0.9411 0.0818
vt 0.9344 0.1890
vt 0.9448 0.3233
vt 0.9583 0.3228
vt 0.9484 0.4712
vt 0.9352 0.4721
vt 0.9263 0.3215
vt 0.9172 0.4689
vt 0.9255 0.6224
vt 0.9385 0.6210
vt 0.9345 0.6812
vt 0.9216 0.6826
vt 0.9080 0.6178
vt 0.9043 0.6775
vt 0.9152 0.7830
vt 0.9218 0.7821
vt 0.9185 0.8323
vt 0.9119 0.8333
vt 0.9066 0.7800
vt 0.9035 0.8301
vt 0.8801 0.7646
vt 0.8895 0.7711
vt 0.8865 0.8205
vt 0.8772 0.8137
vt 0.8720 0.7564
vt 0.8692 0.8048
vt 0.9340 0.7722
vt 0.9332 0.7644
vt 0.9299 0.8134
vt 0.9306 0.8217
vt 0.9309 0.7767
vt 0.9276 0.8266
vt 0.8579 0.5823
vt 0.8707 0.5965
vt 0.8886 0.6101
vt 0.9089 0.6204
vt 0.9419 0.6239
vt 0.9484 0.6163
vt 0.9466 0.6043
vt 0.9372 0.5902
vt 0.8653 0.4440
vt 0.8787 0.4540
vt 0.8972 0.4635
vt 0.9181 0.4707
vt 0.9376 0.4742
vt 0.9278 0.6253
vt 0.9520 0.4732
vt 0.9585 0.4679
vt 0.9563 0.4595
vt 0.9465 0.4496
vt 0.8727 0.3075
vt 0.8866 0.3131
vt 0.9057 0.3184
vt 0.9273 0.3225
vt 0.9620 0.3239
vt 0.9685 0.3209
vt 0.9660 0.3162
vt 0.9556 0.3106
vt 0.8792 0.1852
vt 0.8936 0.1867
vt 0.9134 0.1882
vt 0.9355 0.1893
vt 0.9561 0.1898
vt 0.9473 0.3245
vt 0.9709 0.1896
vt 0.9774 0.1888
vt 0.9747 0.1876
vt 0.9638 0.1861
vt 0.8846 0.0866
vt 0.8993 0.0847
vt 0.9196 0.0828
vt 0.9422 0.0814
vt 0.9782 0.0810
vt 0.9847 0.0820
vt 0.9817 0.0836
vt 0.9705 0.0855
vt 0.8885 0.0137
vt 0.9036 0.0091
vt 0.9242 0.0049
vt 0.9471 0.0016
vt 0.9684 -0.0000
vt 0.9631 0.0808
vt 0.9836 0.0004
vt 0.9900 0.0028
vt 0.9868 0.0067
vt 0.9754 0.0112
vt 0.8356 0.1717
vt 0.8283 0.3245
vt 0.8229 0.3242
vt 0.8300 0.1716
vt 0.8223 0.4515
vt 0.8169 0.4510
vt 0.7964 0.4491
vt 0.8019 0.3230
vt 0.7643 0.6477
vt 0.7669 0.6443
vt 0.8531 0.6582
vt 0.8527 0.6618
vt 0.8496 0.3257
vt 0.8431 0.4534
vt 0.7903 0.5891
vt 0.8104 0.5918
vt 0.7886 0.1071
vt 0.8350 0.1066
vt 0.8086 0.1715
vt 0.8827 0.1061
vt 0.8574 0.1719
vt 0.7771 0.9263
vt 0.7819 0.9274
vt 0.7790 0.9920
vt 0.7766 0.9914
vt 0.8156 0.5925
vt 0.7637 0.6617
vt 0.8512 0.6757
vt 0.8359 0.5953
vt 0.7954 0.4477
vt 0.8158 0.4496
vt 0.8093 0.5898
vt 0.7893 0.5871
vt 0.8211 0.4501
vt 0.8418 0.4520
vt 0.8347 0.5933
vt 0.8145 0.5905
vt 0.8074 0.1713
vt 0.8288 0.1715
vt 0.8217 0.3234
vt 0.8009 0.3222
vt 0.8343 0.1716
vt 0.8560 0.1717
vt 0.8483 0.3248
vt 0.8271 0.3237
vt 0.7822 0.7777
vt 0.7852 0.7097
vt 0.8172 0.7153
vt 0.8138 0.7839
vt 0.7743 0.9908
vn 0.4518 -0.0900 0.8876
vn 0.4135 0.0062 0.9105
vn 0.3805 -0.1982 0.9033
vn 0.4007 -0.0085 0.9162
vn 0.6402 -0.0151 0.7681
vn 0.7408 -0.1476 0.6553
vn 0.6980 -0.2381 0.6753
vn 0.7238 -0.1692 0.6689
vn -0.7188 -0.0012 0.6953
vn -0.5441 -0.0080 0.8390
vn -0.5792 -0.2555 0.7741
vn -0.6093 -0.1058 0.7859
vn -0.3297 -0.0068 0.9441
vn -0.3641 -0.0006 0.9314
vn -0.3356 -0.2208 0.9158
vn -0.3503 0.0168 0.9365
vn -0.1059 -0.0017 0.9944
vn -0.0928 -0.0019 0.9957
vn -0.0953 -0.2039 0.9743
vn -0.0987 -0.0091 0.9951
vn 0.1383 0.0021 0.9904
vn 0.1590 0.0025 0.9873
vn 0.1364 -0.2003 0.9702
vn 0.1478 -0.0100 0.9890
vn -0.7475 -0.5263 0.4053
vn -0.9354 -0.0139 0.3534
vn 0.9231 -0.3143 0.2216
vn 0.9680 -0.0149 0.2505
vn 0.3971 0.0032 0.9178
vn 0.7310 0.0053 0.6823
vn -0.6242 0.0000 0.7813
vn -0.3490 0.0000 0.9371
vn -0.0985 0.0000 0.9951
vn 0.1490 0.0012 0.9888
vn -0.9341 -0.0010 0.3571
vn 0.9746 0.0140 0.2234
vn -0.0152 0.9999 -0.0036
vn 0.2335 0.9710 -0.0509
vn -0.0355 0.9976 -0.0598
vn -0.0080 1.0000 0.0042
vn 0.0124 0.9999 0.0029
vn -0.0236 0.9997 -0.0014
vn -0.0031 1.0000 -0.0090
vn -0.0116 0.9999 0.0043
vn -0.0238 -0.0003 -0.9997
vn -0.0201 -0.0019 -0.9998
vn 0.1221 -0.9925 0.0108
vn -0.2307 -0.9716 0.0528
vn 0.0143 -0.9999 0.0012
vn -0.0037 -1.0000 -0.0008
vn 0.0032 -1.0000 0.0030
vn 0.0305 -0.9973 0.0667
vn 0.0973 -0.9894 0.1078
vn 0.0089 -1.0000 -0.0017
vn 0.3637 -0.0755 0.9285
vn 0.7463 -0.0100 0.6655
vn -0.6251 0.0026 0.7806
vn -0.3048 -0.1062 0.9465
vn -0.1118 -0.0443 0.9927
vn 0.1628 -0.0340 0.9861
vn -0.9353 -0.0113 0.3537
vn 0.9689 -0.0078 0.2474
vn 0.4151 0.0043 0.9098
vn 0.4307 0.0416 0.9015
vn 0.3932 0.0167 0.9193
vn 0.7825 0.0756 0.6180
vn 0.6402 -0.0037 0.7682
vn 0.7696 0.0830 0.6331
vn -0.5494 -0.0051 0.8355
vn -0.7146 -0.0111 0.6994
vn -0.6237 0.0432 0.7804
vn -0.3691 -0.0057 0.9294
vn -0.3264 -0.0028 0.9452
vn -0.3495 -0.0168 0.9368
vn -0.0931 -0.0008 0.9957
vn -0.1051 -0.0017 0.9945
vn -0.0981 0.0023 0.9952
vn 0.1586 0.0025 0.9873
vn 0.1386 0.0014 0.9903
vn 0.1490 0.0078 0.9888
vn -0.9350 -0.0088 0.3545
vn 0.9602 0.0072 0.2791
vn 0.1792 0.0026 0.9838
vn -0.1201 -0.0018 0.9928
vn 0.1782 0.0016 0.9840
vn -0.1199 -0.0010 0.9928
vn 0.1779 0.0003 0.9840
vn -0.1320 -0.0000 0.9913
vn 0.1587 0.0015 0.9873
vn -0.1049 -0.0007 0.9945
vn -0.3711 -0.0000 0.9286
vn -0.6853 -0.0022 0.7282
vn 0.7625 0.0101 0.6469
vn 0.4370 0.0073 0.8994
vn 0.4142 0.0033 0.9102
vn 0.6402 0.0000 0.7682
vn -0.5469 -0.0055 0.8372
vn -0.3282 -0.0012 0.9446
vn -0.0929 -0.0006 0.9957
vn 0.1384 0.0014 0.9904
vn -0.9352 -0.0121 0.3539
vn 0.9660 0.0043 0.2586
vn -0.9343 0.0009 0.3565
vn -0.6238 -0.0064 0.7815
vn -0.2757 -0.0033 0.9612
vn 0.3411 0.0005 0.9400
vn 0.7501 0.0000 0.6614
vn 0.9644 0.0047 0.2644
vn -0.9309 -0.0026 0.3653
vn -0.6171 -0.0044 0.7869
vn -0.2845 0.0019 0.9587
vn -0.1260 0.0007 0.9920
vn 0.1791 0.0018 0.9838
vn 0.3444 0.0017 0.9388
vn 0.7377 0.0068 0.6751
vn 0.9684 0.0104 0.2491
vn -0.9219 -0.0055 0.3874
vn -0.6145 -0.0079 0.7889
vn -0.2934 -0.0031 0.9560
vn 0.3497 0.0015 0.9369
vn 0.7213 0.0024 0.6927
vn 0.9650 0.0183 0.2614
vn -0.9230 -0.0129 0.3845
vn -0.6147 -0.0035 0.7888
vn -0.2877 -0.0059 0.9577
vn -0.1209 -0.0041 0.9927
vn 0.1795 0.0058 0.9837
vn 0.3618 0.0060 0.9322
vn 0.7171 0.0000 0.6970
vn 0.9556 0.0000 0.2947
vn -0.9302 -0.0081 0.3669
vn -0.6136 -0.0074 0.7896
vn -0.2814 -0.0037 0.9596
vn 0.3741 0.0019 0.9274
vn -0.9328 -0.0055 0.3603
vn -0.6118 -0.0003 0.7910
vn -0.2792 -0.0035 0.9602
vn -0.1203 -0.0030 0.9927
vn 0.1804 0.0054 0.9836
vn 0.3822 0.0065 0.9240
vn 0.9540 0.0034 0.2997
vn 0.0000 0.0000 1.0000
vn -0.0028 -0.9345 0.3559
s off
f 1/1/1 2/2/1 3/3/1
f 3/3/2 4/4/2 5/5/2
f 6/6/3 4/4/3 2/2/3 7/7/3
f 4/4/4 3/3/4 2/2/4
f 8/8/5 9/9/5 10/10/5
f 2/2/6 1/1/6 10/10/6
f 7/7/7 2/2/7 9/9/7 11/11/7
f 2/2/8 10/10/8 9/9/8
f 12/12/9 13/13/9 14/14/9
f 14/14/10 15/15/10 16/16/10
f 17/17/11 15/15/11 13/13/11 18/18/11
f 15/15/12 14/14/12 13/13/12
f 19/19/13 20/20/13 21/21/13
f 21/21/14 13/13/14 12/12/14
f 18/18/15 13/13/15 20/20/15 22/22/15
f 13/13/16 21/21/16 20/20/16
f 23/23/17 24/24/17 25/25/17
f 25/25/18 20/20/18 19/19/18
f 22/22/19 20/20/19 24/24/19 26/26/19
f 20/20/20 25/25/20 24/24/20
f 5/5/21 4/4/21 27/27/21
f 27/27/22 24/24/22 23/23/22
f 26/26/23 24/24/23 4/4/23 6/6/23
f 24/24/24 27/27/24 4/4/24
f 15/15/25 17/17/25 28/28/25 29/29/25
f 16/16/26 15/15/26 29/29/26 30/30/26
f 31/31/27 32/32/27 11/11/27 9/9/27
f 33/33/28 31/31/28 9/9/28 8/8/28
f 34/34/29 35/35/29 36/36/29 37/37/29
f 38/38/30 39/39/30 35/35/30 34/34/30
f 40/40/31 41/41/31 42/42/31 43/43/31
f 44/44/32 45/45/32 41/41/32 40/40/32
f 46/46/33 47/47/33 45/45/33 44/44/33
f 37/37/34 36/36/34 47/47/34 46/46/34
f 43/43/35 42/42/35 48/48/35 49/49/35
f 50/50/36 51/51/36 39/39/36 38/38/36
f 52/52/37 53/53/37 39/39/37 51/51/37
f 54/54/38 55/55/38 48/48/38 42/42/38
f 56/56/39 54/54/39 42/42/39 41/41/39
f 57/57/40 56/56/40 41/41/40 45/45/40
f 58/58/41 57/57/41 45/45/41 47/47/41
f 59/59/42 58/58/42 47/47/42 36/36/42
f 60/60/43 59/59/43 36/36/43 35/35/43
f 53/53/44 60/60/44 35/35/44 39/39/44
f 61/61/45 52/52/45 51/51/45 50/50/45
f 55/55/46 62/62/46 49/49/46 48/48/46
f 63/63/47 61/61/47 50/50/47 38/38/47
f 62/62/48 64/64/48 43/43/48 49/49/48
f 65/65/49 66/66/49 37/37/49 46/46/49
f 67/67/50 65/65/50 46/46/50 44/44/50
f 68/68/51 67/67/51 44/44/51 40/40/51
f 64/64/52 68/68/52 40/40/52 43/43/52
f 69/69/53 63/63/53 38/38/53 34/34/53
f 66/66/54 69/69/54 34/34/54 37/37/54
f 70/70/55 69/69/55 66/66/55 71/71/55
f 72/72/56 63/63/56 69/69/56 70/70/56
f 73/73/57 68/68/57 64/64/57 74/74/57
f 75/75/58 67/67/58 68/68/58 73/73/58
f 76/76/59 65/65/59 67/67/59 75/75/59
f 71/71/60 66/66/60 65/65/60 76/76/60
f 74/74/61 64/64/61 62/62/61 77/77/61
f 78/78/62 61/61/62 63/63/62 72/72/62
f 79/79/63 59/59/63 80/80/63
f 80/80/64 60/60/64 81/81/64
f 60/60/65 80/80/65 59/59/65
f 81/81/66 60/60/66 82/82/66
f 82/82/67 53/53/67 83/83/67
f 53/53/68 82/82/68 60/60/68
f 84/84/69 54/54/69 85/85/69
f 85/85/70 56/56/70 86/86/70
f 56/56/71 85/85/71 54/54/71
f 86/86/72 56/56/72 87/87/72
f 87/87/73 57/57/73 88/88/73
f 57/57/74 87/87/74 56/56/74
f 88/88/75 57/57/75 89/89/75
f 89/89/76 58/58/76 90/90/76
f 58/58/77 89/89/77 57/57/77
f 90/90/78 58/58/78 91/91/78
f 91/91/79 59/59/79 79/79/79
f 59/59/80 91/91/80 58/58/80
f 54/54/81 84/84/81 92/92/81 55/55/81
f 52/52/82 93/93/82 83/83/82 53/53/82
f 94/94/83 95/95/83 96/96/83 97/97/83
f 98/98/84 94/94/84 97/97/84 99/99/84
f 100/100/85 101/101/85 102/102/85 103/103/85
f 104/104/86 100/100/86 103/103/86 105/105/86
f 106/106/87 107/107/87 108/108/87 109/109/87
f 110/110/88 106/106/88 109/109/88 111/111/88
f 112/112/89 113/113/89 114/114/89 115/115/89
f 116/116/90 112/112/90 115/115/90 117/117/90
f 118/118/91 119/119/91 120/120/91 121/121/91
f 122/122/92 118/118/92 121/121/92 123/123/92
f 124/124/93 125/125/93 126/126/93 127/127/93
f 128/128/94 124/124/94 127/127/94 129/129/94
f 79/79/95 80/80/95 3/3/95 5/5/95
f 82/82/96 83/83/96 8/8/96 10/10/96
f 84/84/97 85/85/97 14/14/97 16/16/97
f 87/87/98 88/88/98 19/19/98 21/21/98
f 88/88/99 89/89/99 25/25/99 19/19/99
f 91/91/100 79/79/100 5/5/100 27/27/100
f 92/92/101 84/84/101 16/16/101 30/30/101
f 83/83/102 93/93/102 33/33/102 8/8/102
f 130/130/103 131/131/103 74/74/103 77/77/103
f 131/131/104 132/132/104 73/73/104 74/74/104
f 132/132/105 133/133/105 75/75/105 73/73/105
f 134/134/106 135/135/106 70/70/106 71/71/106
f 135/135/107 136/136/107 72/72/107 70/70/107
f 136/136/108 137/137/108 78/78/108 72/72/108
f 138/138/109 139/139/109 131/131/109 130/130/109
f 139/139/110 140/140/110 132/132/110 131/131/110
f 140/140/111 141/141/111 133/133/111 132/132/111
f 141/141/112 142/142/112 143/143/112 133/133/112
f 142/142/113 144/144/113 134/134/113 143/143/113
f 144/144/114 145/145/114 135/135/114 134/134/114
f 145/145/115 146/146/115 136/136/115 135/135/115
f 146/146/116 147/147/116 137/137/116 136/136/116
f 148/148/117 149/149/117 139/139/117 138/138/117
f 149/149/118 150/150/118 140/140/118 139/139/118
f 150/150/119 151/151/119 141/141/119 140/140/119
f 152/152/120 153/153/120 145/145/120 144/144/120
f 153/153/121 154/154/121 146/146/121 145/145/121
f 154/154/122 155/155/122 147/147/122 146/146/122
f 156/156/123 157/157/123 149/149/123 148/148/123
f 157/157/124 158/158/124 150/150/124 149/149/124
f 158/158/125 159/159/125 151/151/125 150/150/125
f 159/159/126 160/160/126 161/161/126 151/151/126
f 160/160/127 162/162/127 152/152/127 161/161/127
f 162/162/128 163/163/128 153/153/128 152/152/128
f 163/163/129 164/164/129 154/154/129 153/153/129
f 164/164/130 165/165/130 155/155/130 154/154/130
f 166/166/131 167/167/131 157/157/131 156/156/131
f 167/167/132 168/168/132 158/158/132 157/157/132
f 168/168/133 169/169/133 159/159/133 158/158/133
f 170/170/134 171/171/134 163/163/134 162/162/134
f 171/171/129 172/172/129 164/164/129 163/163/129
f 172/172/130 173/173/130 165/165/130 164/164/130
f 174/174/135 175/175/135 167/167/135 166/166/135
f 175/175/136 176/176/136 168/168/136 167/167/136
f 176/176/137 177/177/137 169/169/137 168/168/137
f 177/177/138 178/178/138 179/179/138 169/169/138
f 178/178/139 180/180/139 170/170/139 179/179/139
f 180/180/140 181/181/140 171/171/140 170/170/140
f 181/181/129 182/182/129 172/172/129 171/171/129
f 182/182/141 183/183/141 173/173/141 172/172/141
f 184/184/142 185/185/142 186/186/142 187/187/142
f 188/188/142 189/189/142 186/186/142 185/185/142
f 190/190/142 191/191/142 186/186/142 189/189/142
f 192/192/143 193/193/143 194/194/143 195/195/143
f 196/196/142 197/197/142 188/188/142 185/185/142
f 194/194/142 193/193/142 198/198/142 199/199/142
f 200/200/142 201/201/142 187/187/142 202/202/142
f 184/184/142 201/201/142 203/203/142 204/204/142
f 205/205/142 206/206/142 207/207/142 208/208/142
f 188/188/142 209/209/142 199/199/142 189/189/142
f 210/210/142 192/192/142 195/195/142 211/211/142
f 200/200/142 190/190/142 198/198/142 193/193/142
f 212/212/142 197/197/142 203/203/142 194/194/142
f 213/213/142 214/214/142 215/215/142 216/216/142
f 217/217/142 218/218/142 219/219/142 220/220/142
f 221/221/142 222/222/142 223/223/142 224/224/142
f 225/225/142 226/226/142 227/227/142 228/228/142
f 229/229/142 230/230/142 231/231/142 232/232/142
f 196/196/142 204/204/142 203/203/142
f 197/197/142 196/196/142 203/203/142
f 184/184/142 187/187/142 201/201/142
f 200/200/142 202/202/142 191/191/142
f 200/200/142 191/191/142 190/190/142
f 209/209/142 212/212/142 194/194/142
f 199/199/142 209/209/142 194/194/142
f 205/205/142 208/208/142 233/233/142
