# Blender v2.78 (sub 0) OBJ File: ''
# www.blender.org
o Part3
v 0.837204 -0.307601 -0.033031
v 0.581081 -0.481721 -0.033031
v 0.832030 -0.586983 -0.033031
v -0.210071 -0.039714 -0.033215
v -0.181604 -0.015508 -0.014920
v -0.211687 0.066813 -0.033215
v -0.439770 -0.022256 -0.033031
v 0.252433 0.073202 -0.033215
v 0.221663 -0.009957 -0.014920
v 0.253965 -0.027397 -0.033215
v 0.467939 -0.013917 -0.033031
v 0.617042 -0.011941 -0.033031
v 0.613642 0.239711 -0.033031
v 0.582186 0.239276 -0.033031
v 0.585594 -0.012377 -0.033031
v 0.441657 0.517788 -0.033031
v 0.464532 0.237735 -0.033031
v 0.652911 0.521195 -0.033031
v 0.466030 -0.236089 -0.033031
v 0.577682 -0.234556 -0.033031
v -0.413061 -0.484500 -0.045213
v -0.303779 -0.482993 -0.045213
v -0.307178 -0.235938 -0.045213
v -0.416460 -0.237445 -0.045213
v -0.549679 -0.023772 -0.033031
v -0.553078 0.223401 -0.033031
v -0.580348 0.223024 -0.033031
v -0.576941 -0.024140 -0.033031
v -0.179410 -0.152939 -0.033031
v -0.146932 -0.152487 -0.033031
v -0.146932 -0.152487 0.005308
v -0.179410 -0.152939 -0.014920
v -0.112679 -0.152018 -0.033031
v -0.112821 -0.152018 0.028903
v -0.061078 -0.151306 -0.033031
v -0.060986 -0.151214 0.048411
v -0.001606 -0.150485 -0.033031
v -0.001396 -0.150393 0.056625
v 0.064807 -0.149573 -0.033031
v 0.064723 -0.149489 0.048411
v 0.116685 -0.148861 -0.033031
v 0.116584 -0.148861 0.028903
v 0.168973 -0.148141 -0.033031
v 0.168889 -0.148141 0.005308
v 0.222935 -0.147396 -0.033031
v 0.222935 -0.147396 -0.014920
v 0.249360 0.286347 -0.033215
v 0.250901 0.184576 -0.033215
v 0.271020 0.304767 -0.033215
v -0.552651 -0.238215 -0.033031
v -0.807636 -0.579389 -0.033031
v -0.705714 -0.579858 -0.033031
v -0.549235 -0.486376 -0.033031
v 0.007110 0.411135 -0.033031
v 0.092956 0.402553 -0.033031
v 0.230739 0.514891 -0.033031
v 0.019829 0.512086 -0.033031
v -0.191090 0.509189 -0.033031
v -0.069517 0.399514 -0.033031
v -0.402000 0.506283 -0.033031
v -0.443169 0.224916 -0.033031
v -0.236094 0.315175 -0.033123
v -0.213219 0.178188 -0.033215
v -0.214433 0.284723 -0.033215
v -0.236730 0.294368 -0.033215
v -0.822640 0.500489 -0.033031
v -0.692083 0.221492 -0.033031
v -0.612927 0.503378 -0.033031
v 0.877485 0.516967 -0.033031
v 0.875342 0.523456 -0.033031
v 0.838091 0.487704 -0.033031
v 0.868233 0.502005 -0.033031
v 0.271648 0.317661 -0.033123
v 0.178652 0.377184 -0.033031
v -0.602612 -0.580335 -0.033031
v -0.537564 -0.580813 -0.033031
v -0.303779 -0.482993 -0.033031
v -0.413061 -0.484500 -0.033031
v -0.434462 -0.581281 -0.033031
v -0.331342 -0.581759 -0.033031
v -0.440146 -0.484877 -0.033031
v 0.591588 -0.586037 -0.033031
v 0.737802 -0.586514 -0.033031
v 0.469430 -0.483261 -0.033031
v 0.488486 -0.585560 -0.033031
v 0.130123 -0.434942 -0.033031
v 0.191521 -0.584137 -0.033031
v 0.282273 -0.584614 -0.033031
v 0.329964 -0.485179 -0.033031
v -0.117812 -0.582713 -0.033031
v -0.116321 -0.436081 -0.033031
v -0.228240 -0.582236 -0.033031
v 0.049619 -0.436047 -0.033031
v 0.088402 -0.583659 -0.033031
v -0.014701 -0.583182 -0.033031
v -0.033406 -0.434942 -0.033031
v 0.326565 -0.238014 -0.033031
v 0.255464 -0.146952 -0.033215
v 0.127427 -0.239036 -0.033031
v 0.438224 -0.236474 -0.033031
v -0.493314 -0.237395 -0.033031
v -0.443546 -0.237822 -0.033031
v -0.416460 -0.237445 -0.033031
v 0.088862 -0.239563 -0.033031
v 0.046923 -0.240141 -0.033031
v -0.036118 -0.237914 -0.033031
v -0.119034 -0.239061 -0.033031
v -0.081365 -0.238542 -0.033031
v -0.208656 -0.153341 -0.033215
v -0.359433 -0.236658 -0.033031
v 0.726851 0.241252 -0.033031
v 0.730258 -0.010409 -0.033031
v 0.836534 -0.043364 -0.033031
v 0.837338 0.223108 -0.033031
v -0.186544 0.320408 -0.004647
v -0.153312 0.324150 0.015573
v -0.155179 0.367756 -0.033031
v 0.164887 0.329760 0.015573
v 0.110162 0.330028 0.039176
v -0.119251 0.324762 0.039176
v 0.216957 0.325632 -0.004647
v -0.008254 0.328019 0.062771
v 0.058435 0.329141 0.054900
v -0.067834 0.327031 0.054900
v 0.441624 -0.483646 -0.033031
v -0.307178 -0.235938 -0.033031
v -0.688684 -0.025681 -0.033031
v -0.185681 0.285167 -0.014920
v -0.186049 0.304131 -0.004446
v -0.152802 0.285686 0.005308
v -0.153061 0.304625 0.015783
v -0.118716 0.286155 0.028903
v -0.118984 0.305094 0.039377
v -0.067165 0.286967 0.044635
v -0.067424 0.306082 0.055110
v 0.110573 0.289412 0.028903
v 0.110313 0.308301 0.039377
v 0.058678 0.307589 0.055110
v 0.058938 0.288700 0.044635
v -0.007684 0.287787 0.052497
v -0.007952 0.306894 0.062980
v 0.217233 0.304700 -0.004446
v 0.217485 0.286105 -0.014920
v 0.164585 0.308987 0.015783
v 0.164853 0.289663 0.005308
v -0.148682 -0.015056 0.005308
v -0.001915 -0.013038 0.052497
v -0.062760 -0.013875 0.044635
v 0.167306 -0.010710 0.005308
v 0.218288 0.239661 -0.014920
v -0.114571 -0.014587 0.028903
v -0.066202 0.238681 0.044635
v -0.118071 0.233574 0.028903
v -0.185011 0.232561 -0.014920
v 0.114901 -0.011430 0.028903
v 0.063015 -0.012142 0.044635
v 0.111611 0.238195 0.028903
v 0.059390 0.240406 0.044635
v 0.163941 0.238916 0.005308
v -0.006721 0.239502 0.052497
v -0.152207 0.233013 0.005308
v -0.439770 -0.022256 -0.046117
v -0.443169 0.224916 -0.046117
v -0.553078 0.223401 -0.046117
v -0.549679 -0.023772 -0.046117
v -0.440146 -0.484877 -0.046025
v -0.443546 -0.237822 -0.046025
v -0.552651 -0.238215 -0.046025
v -0.549235 -0.486376 -0.046025
v -0.116321 -0.436081 -0.045213
v -0.033406 -0.434942 -0.045213
v -0.036118 -0.237914 -0.045213
v -0.119034 -0.239061 -0.045213
v 0.329964 -0.485179 -0.045213
v 0.441624 -0.483646 -0.045213
v 0.438224 -0.236474 -0.045213
v 0.326565 -0.238014 -0.045213
v 0.469430 -0.483261 -0.046025
v 0.581081 -0.481721 -0.046025
v 0.577682 -0.234556 -0.046025
v 0.466030 -0.236089 -0.046025
v -0.066126 0.238681 0.033265
v -0.062685 -0.013875 0.033265
v -0.001849 -0.013038 0.041135
v -0.006655 0.239502 0.041135
v 0.063074 -0.012142 0.033273
v 0.059448 0.240406 0.033265
v -0.176588 -0.015441 -0.025738
v -0.143667 -0.014989 -0.005518
v -0.147192 0.233080 -0.005518
v -0.179996 0.232628 -0.025738
v -0.113056 0.233641 0.018077
v -0.109556 -0.014520 0.018077
v 0.107609 0.238137 0.019174
v 0.110899 -0.011481 0.019174
v 0.163296 -0.010761 -0.004429
v 0.159922 0.238857 -0.004429
v 0.217652 -0.010015 -0.024649
v 0.214286 0.239610 -0.024649
v -0.692083 0.221492 -0.046360
v -0.688684 -0.025681 -0.046360
v -0.576941 -0.024140 -0.046360
v -0.580348 0.223024 -0.046360
v 0.726851 0.241252 -0.045774
v 0.613642 0.239711 -0.045774
v 0.617042 -0.011941 -0.045774
v 0.730258 -0.010409 -0.045774
v 0.582186 0.239276 -0.046025
v 0.464532 0.237735 -0.046025
v 0.467939 -0.013917 -0.046025
v 0.585594 -0.012377 -0.046025
v 0.127427 -0.239036 -0.045213
v 0.046923 -0.240141 -0.045213
v 0.049619 -0.436047 -0.045213
v 0.130123 -0.434942 -0.045213
v 0.385375 -0.585083 -0.033031
v 0.868384 0.490651 -0.033031
vt 0.5629 0.2547
vt 0.5295 0.1618
vt 0.5642 0.1102
vt 0.4170 0.3842
vt 0.4202 0.3976
vt 0.4176 0.4384
vt 0.3884 0.3929
vt 0.4815 0.4449
vt 0.4763 0.4025
vt 0.4814 0.3896
vt 0.5122 0.4068
vt 0.5326 0.4086
vt 0.5321 0.5318
vt 0.5276 0.5312
vt 0.5281 0.4082
vt 0.5060 0.6622
vt 0.5120 0.5292
vt 0.5349 0.6672
vt 0.5127 0.2929
vt 0.5289 0.2938
vt 0.3901 0.1592
vt 0.4052 0.1593
vt 0.4069 0.2855
vt 0.3920 0.2847
vt 0.3739 0.3916
vt 0.3761 0.5087
vt 0.3721 0.5082
vt 0.3699 0.3912
vt 0.4202 0.3293
vt 0.4257 0.3297
vt 0.4241 0.3319
vt 0.4194 0.3304
vt 0.4325 0.3301
vt 0.4299 0.3338
vt 0.4391 0.3306
vt 0.4360 0.3351
vt 0.4472 0.3311
vt 0.4440 0.3362
vt 0.4565 0.3317
vt 0.4538 0.3363
vt 0.4624 0.3321
vt 0.4604 0.3358
vt 0.4699 0.3325
vt 0.4687 0.3348
vt 0.4766 0.3330
vt 0.4761 0.3341
vt 0.4818 0.5530
vt 0.4817 0.4994
vt 0.4853 0.5625
vt 0.3725 0.2843
vt 0.3308 0.1126
vt 0.3444 0.1124
vt 0.3702 0.1591
vt 0.4493 0.6057
vt 0.4609 0.6037
vt 0.4776 0.6572
vt 0.4497 0.6524
vt 0.4223 0.6476
vt 0.4389 0.5999
vt 0.3955 0.6429
vt 0.3903 0.5106
vt 0.4168 0.5583
vt 0.4183 0.4918
vt 0.4189 0.5443
vt 0.4170 0.5528
vt 0.3432 0.6339
vt 0.3580 0.5064
vt 0.3691 0.6384
vt 0.5648 0.6693
vt 0.5645 0.6723
vt 0.5593 0.6551
vt 0.5635 0.6625
vt 0.4854 0.5687
vt 0.4723 0.5927
vt 0.3580 0.1123
vt 0.3718 0.1121
vt 0.4046 0.1593
vt 0.3894 0.1592
vt 0.3858 0.1120
vt 0.3998 0.1119
vt 0.3851 0.1592
vt 0.5330 0.1105
vt 0.5485 0.1103
vt 0.5130 0.1617
vt 0.5176 0.1106
vt 0.4649 0.1894
vt 0.4723 0.1111
vt 0.4872 0.1110
vt 0.4921 0.1615
vt 0.4284 0.1116
vt 0.4305 0.1889
vt 0.4141 0.1117
vt 0.4532 0.1892
vt 0.4575 0.1113
vt 0.4429 0.1114
vt 0.4421 0.1891
vt 0.4922 0.2919
vt 0.4812 0.3333
vt 0.4654 0.2914
vt 0.5082 0.2927
vt 0.3803 0.2847
vt 0.3872 0.2850
vt 0.3914 0.2853
vt 0.4600 0.2911
vt 0.4539 0.2908
vt 0.4429 0.2903
vt 0.4315 0.2897
vt 0.4367 0.2900
vt 0.4163 0.3291
vt 0.3990 0.2856
vt 0.5479 0.5339
vt 0.5488 0.4101
vt 0.5617 0.3935
vt 0.5605 0.5269
vt 0.4216 0.5627
vt 0.4262 0.5661
vt 0.4274 0.5840
vt 0.4698 0.5729
vt 0.4615 0.5748
vt 0.4319 0.5702
vt 0.4766 0.5713
vt 0.4455 0.5755
vt 0.4550 0.5759
vt 0.4377 0.5732
vt 0.5084 0.1617
vt 0.4063 0.2860
vt 0.3555 0.3900
vt 0.4220 0.5470
vt 0.4216 0.5572
vt 0.4265 0.5502
vt 0.4261 0.5605
vt 0.4322 0.5541
vt 0.4318 0.5644
vt 0.4380 0.5569
vt 0.4377 0.5674
vt 0.4617 0.5582
vt 0.4614 0.5687
vt 0.4550 0.5699
vt 0.4553 0.5594
vt 0.4458 0.5591
vt 0.4455 0.5696
vt 0.4766 0.5650
vt 0.4769 0.5547
vt 0.4698 0.5667
vt 0.4700 0.5563
vt 0.4248 0.3996
vt 0.4447 0.4054
vt 0.4366 0.4040
vt 0.4690 0.4036
vt 0.4768 0.5266
vt 0.4306 0.4021
vt 0.4377 0.5287
vt 0.4319 0.5260
vt 0.4216 0.5194
vt 0.4608 0.4048
vt 0.4542 0.4056
vt 0.4615 0.5299
vt 0.4551 0.5310
vt 0.4696 0.5281
vt 0.4456 0.5307
vt 0.4262 0.5224
vt 0.3891 0.3919
vt 0.3910 0.5092
vt 0.3768 0.5074
vt 0.3747 0.3906
vt 0.3859 0.1591
vt 0.3879 0.2845
vt 0.3732 0.2838
vt 0.3709 0.1590
vt 0.4310 0.1887
vt 0.4425 0.1889
vt 0.4434 0.2897
vt 0.4320 0.2891
vt 0.4924 0.1615
vt 0.5086 0.1616
vt 0.5084 0.2921
vt 0.4925 0.2913
vt 0.5132 0.1616
vt 0.5296 0.1617
vt 0.5291 0.2931
vt 0.5130 0.2923
vt 0.4382 0.5273
vt 0.4371 0.4031
vt 0.4452 0.4045
vt 0.4460 0.5293
vt 0.4546 0.4046
vt 0.4555 0.5296
vt 0.4214 0.3968
vt 0.4259 0.3989
vt 0.4273 0.5212
vt 0.4228 0.5183
vt 0.4330 0.5248
vt 0.4318 0.4013
vt 0.4613 0.5287
vt 0.4606 0.4040
vt 0.4687 0.4027
vt 0.4693 0.5268
vt 0.4761 0.4017
vt 0.4765 0.5254
vt 0.3588 0.5050
vt 0.3564 0.3890
vt 0.3706 0.3903
vt 0.3728 0.5068
vt 0.5480 0.5323
vt 0.5322 0.5303
vt 0.5328 0.4076
vt 0.5489 0.4090
vt 0.5278 0.5297
vt 0.5122 0.5277
vt 0.5124 0.4058
vt 0.5283 0.4072
vt 0.4658 0.2909
vt 0.4543 0.2903
vt 0.4536 0.1891
vt 0.4653 0.1893
vt 0.5023 0.1108
vt 0.5636 0.6570
vn 0.0000 0.0000 1.0000
vn -0.5357 -0.0081 0.8444
vn 0.0008 0.0000 1.0000
vn 0.4959 0.0076 0.8684
vn -0.0009 -0.0000 1.0000
vn 0.0139 -0.9999 0.0000
vn 0.0137 -0.9999 0.0000
vn 0.0145 -0.9999 0.0006
vn 0.0137 -0.9999 0.0011
vn 0.0138 -0.9999 0.0010
vn 0.0130 -0.9999 0.0006
vn 0.0138 -0.9999 0.0000
vn -0.0008 0.0001 1.0000
vn 0.0003 -0.0002 1.0000
vn 0.0008 0.0002 1.0000
vn -0.0006 -0.0004 1.0000
vn 0.0002 -0.0004 1.0000
vn 0.0008 0.0009 1.0000
vn -0.0009 0.0001 1.0000
vn 0.0009 0.0002 1.0000
vn -0.4339 0.6570 0.6165
vn 0.2407 0.6922 0.6804
vn -0.3170 0.7372 0.5967
vn 0.3763 0.6455 0.6646
vn 0.0706 0.7498 0.6579
vn -0.1075 0.7626 0.6379
vn -0.3670 -0.5621 0.7412
vn -0.4667 -0.4337 0.7707
vn -0.5124 -0.4211 0.7485
vn -0.2502 -0.4696 0.8467
vn 0.2639 -0.4650 0.8451
vn -0.1086 -0.4791 0.8710
vn 0.1086 -0.4790 0.8711
vn 0.4273 -0.4663 0.7746
vn 0.2884 -0.4600 0.8398
vn 0.3603 -0.4446 0.8201
vn 0.4666 -0.0020 0.8845
vn -0.5260 -0.0075 0.8505
vn -0.1326 0.0274 0.9908
vn 0.3496 0.0036 0.9369
vn 0.4985 0.0079 0.8668
vn -0.4964 0.0045 0.8681
vn -0.1312 0.0076 0.9913
vn 0.1171 0.0112 0.9931
vn 0.3609 0.0090 0.9326
vn 0.2910 0.0117 0.9567
vn -0.5694 0.0011 0.8220
vn -0.2923 0.0048 0.9563
vn 0.3973 0.0074 0.9176
vn -0.5212 -0.0011 0.8534
vn -0.3220 0.0089 0.9467
vn -0.2902 -0.0040 0.9570
vn -0.2908 -0.0046 0.9568
vn -0.5331 -0.0077 0.8460
vn -0.5341 -0.0073 0.8454
vn 0.4926 0.0053 0.8703
vn 0.4977 0.0068 0.8673
vn 0.3214 0.0170 0.9468
vn 0.2894 0.0040 0.9572
vn 0.2900 0.0043 0.9570
vn 0.4108 0.0049 0.9117
vn 0.1213 0.0295 0.9922
vn -0.5688 -0.0072 0.8224
vn 0.3537 -0.0004 0.9354
vn 0.4047 0.0005 0.9144
vn 0.1176 0.0017 0.9931
vn -0.1310 -0.0026 0.9914
vn -0.5688 -0.0067 0.8225
vn -0.5244 -0.0063 0.8515
vn -0.1297 -0.0021 0.9916
vn 0.1192 0.0020 0.9929
vn -0.5240 -0.0073 0.8517
vn -0.5686 -0.0080 0.8226
vn 0.4109 0.0055 0.9117
vn 0.3486 0.0047 0.9373
vn -0.5361 -0.0063 0.8441
vn -0.0023 0.0050 1.0000
vn -0.0010 -0.0002 1.0000
vn 0.0136 -0.9999 0.0000
vn 0.1921 0.7149 0.6723
vn -0.2235 0.7500 0.6225
vn 0.0024 -0.0045 1.0000
vn -0.0000 0.0020 1.0000
s off
f 1/1/1 2/2/1 3/3/1
f 4/4/2 5/5/2 6/6/2
f 7/7/3 4/4/3 6/6/3
f 8/8/4 9/9/4 10/10/4
f 11/11/5 8/8/5 10/10/5
f 12/12/1 13/13/1 14/14/1 15/15/1
f 16/16/1 17/17/1 14/14/1 18/18/1
f 11/11/1 19/19/1 20/20/1 15/15/1
f 21/21/1 22/22/1 23/23/1 24/24/1
f 25/25/1 26/26/1 27/27/1 28/28/1
f 29/29/6 30/30/6 31/31/6 32/32/6
f 30/30/7 33/33/7 34/34/7 31/31/7
f 33/33/8 35/35/8 36/36/8 34/34/8
f 35/35/9 37/37/9 38/38/9 36/36/9
f 39/39/10 40/40/10 38/38/10 37/37/10
f 41/41/11 42/42/11 40/40/11 39/39/11
f 43/43/12 44/44/12 42/42/12 41/41/12
f 45/45/12 46/46/12 44/44/12 43/43/12
f 47/47/13 48/48/13 17/17/13 49/49/13
f 50/50/1 51/51/1 52/52/1 53/53/1
f 54/54/1 55/55/1 56/56/1 57/57/1
f 58/58/1 59/59/1 54/54/1 57/57/1
f 58/58/14 60/60/14 61/61/14 62/62/14
f 61/61/15 63/63/15 64/64/15 65/65/15
f 66/66/1 67/67/1 27/27/1 68/68/1
f 69/69/1 70/70/1 71/71/1 72/72/1
f 49/49/16 17/17/16 16/16/16 73/73/16
f 74/74/17 73/73/17 16/16/17 56/56/17
f 52/52/1 75/75/1 76/76/1 53/53/1
f 77/77/1 78/78/1 79/79/1 80/80/1
f 79/79/1 81/81/1 53/53/1 76/76/1
f 3/3/1 2/2/1 82/82/1 83/83/1
f 84/84/1 85/85/1 82/82/1 2/2/1
f 86/86/1 87/87/1 88/88/1 89/89/1
f 90/90/1 91/91/1 77/77/1 92/92/1
f 93/93/1 94/94/1 87/87/1 86/86/1
f 95/95/1 96/96/1 91/91/1 90/90/1
f 96/96/1 95/95/1 94/94/1 93/93/1
f 97/97/18 98/98/18 45/45/18 99/99/18
f 11/11/19 10/10/19 98/98/19 100/100/19
f 7/7/1 25/25/1 50/50/1 101/101/1
f 102/102/1 103/103/1 7/7/1 101/101/1
f 43/43/1 41/41/1 104/104/1 99/99/1
f 41/41/1 39/39/1 105/105/1 104/104/1
f 39/39/1 37/37/1 106/106/1 105/105/1
f 107/107/1 108/108/1 35/35/1 33/33/1
f 37/37/1 35/35/1 108/108/1 106/106/1
f 109/109/20 4/4/20 7/7/20 110/110/20
f 111/111/1 112/112/1 113/113/1 114/114/1
f 1/1/1 113/113/1 112/112/1 20/20/1
f 11/11/5 17/17/5 48/48/5 8/8/5
f 7/7/3 6/6/3 63/63/3 61/61/3
f 62/62/21 115/115/21 116/116/21 117/117/21
f 118/118/22 74/74/22 55/55/22 119/119/22
f 116/116/23 120/120/23 59/59/23 117/117/23
f 73/73/24 74/74/24 118/118/24 121/121/24
f 55/55/25 54/54/25 122/122/25 123/123/25
f 59/59/26 124/124/26 122/122/26 54/54/26
f 93/93/1 105/105/1 106/106/1 96/96/1
f 99/99/1 86/86/1 89/89/1 97/97/1
f 84/84/1 19/19/1 100/100/1 125/125/1
f 107/107/1 126/126/1 77/77/1 91/91/1
f 78/78/1 103/103/1 102/102/1 81/81/1
f 51/51/1 50/50/1 28/28/1 127/127/1
f 51/51/1 127/127/1 67/67/1 66/66/1
f 65/65/27 64/64/27 128/128/27 129/129/27
f 128/128/28 130/130/28 131/131/28 129/129/28
f 130/130/29 132/132/29 133/133/29 131/131/29
f 132/132/30 134/134/30 135/135/30 133/133/30
f 136/136/31 137/137/31 138/138/31 139/139/31
f 134/134/32 140/140/32 141/141/32 135/135/32
f 139/139/33 138/138/33 141/141/33 140/140/33
f 49/49/34 142/142/34 143/143/34 47/47/34
f 144/144/35 145/145/35 143/143/35 142/142/35
f 137/137/36 136/136/36 145/145/36 144/144/36
f 73/73/37 121/121/37 142/142/37 49/49/37
f 31/31/38 146/146/38 5/5/38 32/32/38
f 36/36/39 38/38/39 147/147/39 148/148/39
f 46/46/40 9/9/40 149/149/40 44/44/40
f 143/143/41 150/150/41 48/48/41 47/47/41
f 129/129/42 115/115/42 62/62/42 65/65/42
f 141/141/43 122/122/43 124/124/43 135/135/43
f 123/123/44 122/122/44 141/141/44 138/138/44
f 121/121/45 118/118/45 144/144/45 142/142/45
f 119/119/46 123/123/46 138/138/46 137/137/46
f 116/116/47 131/131/47 133/133/47 120/120/47
f 135/135/48 124/124/48 120/120/48 133/133/48
f 118/118/49 119/119/49 137/137/49 144/144/49
f 131/131/50 116/116/50 115/115/50 129/129/50
f 36/36/51 148/148/51 151/151/51 34/34/51
f 152/152/52 153/153/52 151/151/52 148/148/52
f 153/153/53 152/152/53 134/134/53 132/132/53
f 5/5/54 4/4/54 109/109/54 32/32/54
f 5/5/55 154/154/55 63/63/55 6/6/55
f 9/9/56 46/46/56 98/98/56 10/10/56
f 9/9/57 8/8/57 48/48/57 150/150/57
f 42/42/58 155/155/58 156/156/58 40/40/58
f 157/157/59 158/158/59 156/156/59 155/155/59
f 158/158/60 157/157/60 136/136/60 139/139/60
f 44/44/61 149/149/61 155/155/61 42/42/61
f 156/156/62 147/147/62 38/38/62 40/40/62
f 34/34/63 151/151/63 146/146/63 31/31/63
f 143/143/64 145/145/64 159/159/64 150/150/64
f 145/145/65 136/136/65 157/157/65 159/159/65
f 140/140/66 160/160/66 158/158/66 139/139/66
f 134/134/67 152/152/67 160/160/67 140/140/67
f 130/130/68 161/161/68 153/153/68 132/132/68
f 128/128/69 154/154/69 161/161/69 130/130/69
f 162/162/1 163/163/1 164/164/1 165/165/1
f 166/166/1 167/167/1 168/168/1 169/169/1
f 170/170/1 171/171/1 172/172/1 173/173/1
f 174/174/1 175/175/1 176/176/1 177/177/1
f 178/178/1 179/179/1 180/180/1 181/181/1
f 182/182/70 183/183/70 184/184/70 185/185/70
f 185/185/71 184/184/71 186/186/71 187/187/71
f 188/188/72 189/189/72 190/190/72 191/191/72
f 192/192/73 190/190/73 189/189/73 193/193/73
f 194/194/74 195/195/74 196/196/74 197/197/74
f 197/197/75 196/196/75 198/198/75 199/199/75
f 128/128/76 64/64/76 63/63/76 154/154/76
f 200/200/1 201/201/1 202/202/1 203/203/1
f 204/204/1 205/205/1 206/206/1 207/207/1
f 208/208/1 209/209/1 210/210/1 211/211/1
f 212/212/1 213/213/1 214/214/1 215/215/1
f 126/126/1 107/107/1 33/33/1 29/29/1
f 110/110/77 126/126/77 29/29/77 109/109/77
f 112/112/1 12/12/1 15/15/1 20/20/1
f 88/88/1 216/216/1 125/125/1 89/89/1
f 84/84/1 125/125/1 216/216/1 85/85/1
f 18/18/1 13/13/1 111/111/1 71/71/1
f 61/61/1 60/60/1 68/68/1 26/26/1
f 13/13/1 18/18/1 14/14/1
f 71/71/1 111/111/1 114/114/1
f 11/11/1 100/100/1 19/19/1
f 50/50/1 25/25/1 28/28/1
f 68/68/1 27/27/1 26/26/1
f 33/33/1 30/30/1 29/29/1
f 1/1/1 20/20/1 2/2/1
f 217/217/1 69/69/1 72/72/1
f 71/71/1 217/217/1 72/72/1
f 58/58/78 62/62/78 117/117/78
f 59/59/1 58/58/1 117/117/1
f 45/45/79 98/98/79 46/46/79
f 109/109/7 29/29/7 32/32/7
f 119/119/80 55/55/80 123/123/80
f 124/124/81 59/59/81 120/120/81
f 65/65/82 62/62/82 61/61/82
f 7/7/1 103/103/1 110/110/1
f 99/99/1 45/45/1 43/43/1
f 98/98/83 97/97/83 100/100/83
f 79/79/1 78/78/1 81/81/1
f 80/80/1 92/92/1 77/77/1
f 56/56/1 55/55/1 74/74/1
f 70/70/1 18/18/1 71/71/1
