# Blender v2.79 (sub 0) OBJ File: 'Dome.blend'
# www.blender.org
o Dome_Icosphere.003
v -0.715713 0.519990 0.004108
v 0.273373 0.841369 0.004108
v 0.884667 0.000000 0.004108
v 0.273373 -0.841369 0.004108
v -0.715713 -0.519990 0.004108
v -0.276440 0.850810 0.947220
v 0.723744 0.525825 0.947220
v 0.723744 -0.525825 0.947220
v -0.276440 -0.850810 0.947220
v -0.894596 0.000000 0.947216
v 0.000000 0.000000 1.500000
v -0.533555 0.683781 0.004108
v -0.266322 0.819639 0.004108
v 0.029729 0.866807 0.004108
v -0.815195 -0.296134 0.004108
v -0.861821 0.000000 0.004108
v -0.815195 0.296134 0.004108
v 0.485440 0.718739 0.004108
v 0.697229 0.506564 0.004108
v 0.833571 0.239578 0.004108
v 0.833571 -0.239578 0.004108
v 0.697229 -0.506564 0.004108
v 0.485440 -0.718739 0.004108
v 0.029729 -0.866807 0.004108
v -0.266322 -0.819639 0.004108
v -0.533555 -0.683781 0.004108
v -0.956807 0.147646 0.751149
v -0.951238 0.309071 0.500000
v -0.860861 0.442941 0.248849
v -0.860861 -0.442941 0.248849
v -0.951238 -0.309071 0.500000
v -0.956807 -0.147646 0.751149
v -0.155244 0.955603 0.751152
v 0.000000 1.000189 0.500000
v 0.155244 0.955603 0.248848
v -0.687289 0.681844 0.248848
v -0.587897 0.809170 0.500000
v -0.436089 0.864352 0.751152
v 0.860861 0.442941 0.751151
v 0.951238 0.309071 0.500000
v 0.956807 0.147646 0.248851
v 0.436089 0.864352 0.248848
v 0.587897 0.809170 0.500000
v 0.687289 0.681844 0.751152
v 0.687289 -0.681844 0.751152
v 0.587897 -0.809170 0.500000
v 0.436089 -0.864352 0.248848
v 0.956807 -0.147646 0.248851
v 0.951238 -0.309071 0.500000
v 0.860861 -0.442941 0.751151
v -0.436089 -0.864352 0.751152
v -0.587897 -0.809170 0.500000
v -0.687289 -0.681844 0.248848
v 0.155244 -0.955603 0.248848
v 0.000000 -1.000189 0.500000
v -0.155244 -0.955603 0.751152
v -0.831208 0.238899 1.002299
v -0.688320 0.500092 1.025736
v -0.484063 0.716700 1.002302
v -0.029645 0.864348 1.002302
v 0.262919 0.809165 1.025738
v 0.532042 0.681842 1.002302
v 0.812883 0.295294 1.002301
v 0.850809 0.000000 1.025736
v 0.812883 -0.295294 1.002301
v 0.532042 -0.681842 1.002302
v 0.262919 -0.809165 1.025738
v -0.029645 -0.864348 1.002302
v -0.484063 -0.716700 1.002302
v -0.688320 -0.500092 1.025736
v -0.831208 -0.238899 1.002299
v -0.077621 0.238898 1.467950
v -0.162486 0.500090 1.350654
v -0.232866 0.716699 1.157519
v -0.753584 0.000000 1.157515
v -0.525829 0.000000 1.350652
v -0.251195 0.000000 1.467949
v 0.203219 0.147646 1.467950
v 0.425403 0.309070 1.350654
v 0.609662 0.442940 1.157519
v 0.203219 -0.147646 1.467950
v 0.425403 -0.309070 1.350654
v 0.609662 -0.442940 1.157519
v -0.077621 -0.238898 1.467950
v -0.162486 -0.500090 1.350654
v -0.232866 -0.716699 1.157519
v -0.361869 -0.262913 1.394429
v -0.638314 -0.262914 1.223610
v -0.447294 -0.525828 1.223612
v 0.138223 -0.425400 1.394430
v 0.052800 -0.688315 1.223612
v 0.361872 -0.587890 1.223612
v 0.447295 0.000000 1.394429
v 0.670944 -0.162488 1.223611
v 0.670944 0.162488 1.223611
v 0.138223 0.425400 1.394430
v 0.361872 0.587890 1.223612
v 0.052800 0.688315 1.223612
v -0.361869 0.262913 1.394429
v -0.447294 0.525828 1.223612
v -0.638314 0.262914 1.223610
v -0.861967 -0.425403 0.776396
v -0.809173 -0.587893 0.500000
v -0.670948 -0.688320 0.776397
v 0.138225 -0.951235 0.776397
v 0.309075 -0.951237 0.499999
v 0.447300 -0.850810 0.776397
v 0.947393 -0.162488 0.776396
v 1.000189 0.000000 0.500001
v 0.947392 0.162489 0.776397
v 0.447300 0.850810 0.776397
v 0.309076 0.951237 0.499999
v 0.138225 0.951235 0.776397
v -0.670947 0.688320 0.776396
v -0.809172 0.587894 0.499998
v -0.861967 0.425404 0.776394
v -0.309076 -0.951237 0.500000
v -0.447300 -0.850809 0.223602
v -0.138225 -0.951235 0.223602
v 0.809172 -0.587895 0.500000
v 0.670946 -0.688321 0.223603
v 0.861966 -0.425404 0.223604
v 0.809172 0.587895 0.500000
v 0.861966 0.425405 0.223604
v 0.670946 0.688321 0.223603
v -0.309076 0.951237 0.500000
v -0.138225 0.951235 0.223602
v -0.447300 0.850809 0.223602
v -1.000189 0.000000 0.500000
v -0.947393 0.162488 0.223604
v -0.947393 -0.162488 0.223604
vt 0.997995 0.429659
vt 0.999900 0.572287
vt 0.913656 0.505466
vt 0.584823 0.005684
vt 0.721060 0.047948
vt 0.631673 0.109443
vt 0.053921 0.267620
vt 0.136214 0.151112
vt 0.167896 0.255250
vt 0.138982 0.853480
vt 0.053604 0.739210
vt 0.163251 0.741383
vt 0.722452 0.953622
vt 0.587393 0.999509
vt 0.624157 0.896024
vt 0.895459 0.380125
vt 0.506844 0.088018
vt 0.108946 0.367346
vt 0.251646 0.832088
vt 0.737739 0.839983
vt 0.652318 0.353187
vt 0.674670 0.407781
vt 0.612085 0.392395
vt 0.406337 0.310970
vt 0.465165 0.306582
vt 0.431194 0.361349
vt 0.290174 0.531863
vt 0.304180 0.474559
vt 0.345768 0.523791
vt 0.464359 0.710603
vt 0.414188 0.679574
vt 0.473863 0.655235
vt 0.688179 0.600176
vt 0.643165 0.638303
vt 0.638458 0.574028
vt 0.539009 0.521730
vt 0.492870 0.544493
vt 0.500274 0.501360
vt 0.586569 0.546741
vt 0.536125 0.574024
vt 0.588427 0.606918
vt 0.483780 0.597454
vt 0.530405 0.635544
vt 0.585101 0.673289
vt 0.522007 0.698080
vt 0.456964 0.507648
vt 0.442245 0.557911
vt 0.427123 0.617817
vt 0.403786 0.515368
vt 0.381968 0.571481
vt 0.362972 0.635163
vt 0.319897 0.582818
vt 0.480910 0.462113
vt 0.428559 0.463646
vt 0.366911 0.467777
vt 0.457134 0.413924
vt 0.397025 0.410513
vt 0.330590 0.412126
vt 0.367061 0.354985
vt 0.531616 0.470816
vt 0.513980 0.421501
vt 0.491001 0.364148
vt 0.570100 0.433312
vt 0.554768 0.375092
vt 0.532704 0.312407
vt 0.598320 0.329435
vt 0.580460 0.489718
vt 0.627905 0.450140
vt 0.637202 0.514169
vt 0.690001 0.473814
vt 0.694082 0.541481
vt 0.714440 0.659851
vt 0.730967 0.738249
vt 0.652688 0.711269
vt 0.646505 0.798207
vt 0.574117 0.750034
vt 0.547531 0.828753
vt 0.495739 0.767753
vt 0.415719 0.754019
vt 0.346304 0.794215
vt 0.347737 0.711179
vt 0.263180 0.732416
vt 0.286589 0.648433
vt 0.203545 0.647725
vt 0.245517 0.579367
vt 0.233852 0.499019
vt 0.174210 0.445673
vt 0.253587 0.421126
vt 0.207299 0.347522
vt 0.294366 0.343582
vt 0.269414 0.264636
vt 0.347358 0.283179
vt 0.420169 0.247255
vt 0.452512 0.174299
vt 0.500349 0.241954
vt 0.556086 0.175437
vt 0.586700 0.256774
vt 0.654111 0.208900
vt 0.660524 0.288508
vt 0.717188 0.346653
vt 0.796606 0.355120
vt 0.747008 0.421271
vt 0.827531 0.453977
vt 0.759597 0.507976
vt 0.825996 0.557546
vt 0.752228 0.587993
vt 0.444210 0.827259
vt 0.499813 0.926013
vt 0.358874 0.901823
vt 0.414248 0.999509
vt 0.251011 0.941776
vt 0.173038 0.548999
vt 0.096305 0.632391
vt 0.075759 0.490875
vt 0.000100 0.574538
vt 0.004566 0.401450
vt 0.353881 0.205114
vt 0.250865 0.157900
vt 0.379105 0.094628
vt 0.276292 0.049340
vt 0.442289 0.000100
vt 0.736821 0.270839
vt 0.749896 0.158269
vt 0.849699 0.260681
vt 0.861136 0.149721
vt 0.959261 0.292377
vt 0.792647 0.655347
vt 0.903752 0.632990
vt 0.837195 0.759553
vt 0.946395 0.736956
vt 0.841044 0.874361
vn -0.7561 0.5493 -0.3557
vn -0.8755 0.2798 -0.3938
vn -0.8681 0.4367 -0.2360
vn 0.2888 0.8889 -0.3557
vn -0.0045 0.9192 -0.3938
vn 0.1471 0.9605 -0.2360
vn 0.9346 0.0000 -0.3557
vn 0.8728 0.2883 -0.3938
vn 0.9590 0.1569 -0.2360
vn 0.2888 -0.8889 -0.3557
vn 0.5439 -0.7410 -0.3938
vn 0.4456 -0.8636 -0.2360
vn -0.7561 -0.5493 -0.3557
vn -0.5366 -0.7462 -0.3938
vn -0.6836 -0.6906 -0.2360
vn -0.6836 0.6906 -0.2360
vn 0.4456 0.8636 -0.2360
vn 0.9590 -0.1569 -0.2360
vn 0.1471 -0.9605 -0.2360
vn -0.8681 -0.4367 -0.2360
vn -0.2764 0.8506 0.4473
vn -0.4915 0.7103 0.5039
vn -0.2308 0.7103 0.6650
vn 0.7236 0.5257 0.4473
vn 0.5236 0.6869 0.5039
vn 0.6042 0.4389 0.6650
vn 0.7236 -0.5257 0.4473
vn 0.8151 -0.2857 0.5039
vn 0.6042 -0.4389 0.6650
vn -0.2764 -0.8506 0.4473
vn -0.0198 -0.8635 0.5039
vn -0.2308 -0.7103 0.6650
vn -0.8944 0.0000 0.4473
vn -0.8274 -0.2480 0.5039
vn -0.7468 0.0000 0.6650
vn -0.2607 0.0000 0.9654
vn -0.0805 -0.2479 0.9654
vn 0.0000 0.0000 1.0000
vn -0.5257 0.0000 0.8507
vn -0.3681 -0.2675 0.8904
vn -0.6317 -0.2675 0.7276
vn -0.1624 -0.4999 0.8507
vn -0.4496 -0.5181 0.7276
vn -0.6881 -0.5000 0.5258
vn -0.4915 -0.7103 0.5039
vn 0.2109 -0.1532 0.9654
vn 0.1406 -0.4328 0.8904
vn 0.0592 -0.6834 0.7276
vn 0.4252 -0.3090 0.8507
vn 0.3538 -0.5877 0.7276
vn 0.2628 -0.8090 0.5258
vn 0.5236 -0.6869 0.5039
vn 0.2109 0.1532 0.9654
vn 0.4551 0.0000 0.8904
vn 0.6683 -0.1549 0.7276
vn 0.4252 0.3090 0.8507
vn 0.6683 0.1549 0.7276
vn 0.8506 0.0000 0.5258
vn 0.8151 0.2857 0.5039
vn -0.0805 0.2479 0.9654
vn 0.1406 0.4328 0.8904
vn 0.3538 0.5877 0.7276
vn -0.1624 0.4999 0.8507
vn 0.0592 0.6834 0.7276
vn 0.2628 0.8090 0.5258
vn -0.0198 0.8635 0.5039
vn -0.3681 0.2675 0.8904
vn -0.4496 0.5181 0.7276
vn -0.6317 0.2675 0.7276
vn -0.6881 0.5000 0.5258
vn -0.8274 0.2480 0.5039
vn -0.9578 -0.1532 0.2431
vn -0.9510 -0.3090 0.0000
vn -0.8593 -0.4328 0.2724
vn -0.8090 -0.5878 0.0089
vn -0.6772 -0.6835 0.2724
vn -0.5878 -0.8090 0.0000
vn -0.4417 -0.8636 0.2431
vn -0.1502 -0.9583 0.2431
vn 0.0000 -1.0000 0.0000
vn 0.1461 -0.9510 0.2724
vn 0.3090 -0.9510 0.0089
vn 0.4407 -0.8553 0.2724
vn 0.5878 -0.8090 0.0000
vn 0.6848 -0.6870 0.2431
vn 0.8650 -0.4390 0.2431
vn 0.9510 -0.3090 0.0000
vn 0.9496 -0.1549 0.2724
vn 0.9999 0.0000 0.0089
vn 0.9496 0.1549 0.2724
vn 0.9510 0.3090 0.0000
vn 0.8650 0.4390 0.2431
vn 0.6848 0.6870 0.2431
vn 0.5878 0.8090 0.0000
vn 0.4407 0.8553 0.2724
vn 0.3090 0.9510 0.0089
vn 0.1461 0.9510 0.2724
vn 0.0000 1.0000 0.0000
vn -0.1502 0.9583 0.2431
vn -0.4417 0.8636 0.2431
vn -0.5878 0.8090 0.0000
vn -0.6772 0.6835 0.2724
vn -0.8090 0.5878 0.0089
vn -0.8593 0.4328 0.2724
vn -0.9510 0.3090 0.0000
vn -0.9578 0.1533 0.2431
vn -0.3090 -0.9510 -0.0089
vn -0.4400 -0.8548 -0.2751
vn -0.1465 -0.9502 -0.2751
vn -0.2805 -0.8634 -0.4193
vn -0.0045 -0.9192 -0.3938
vn 0.8090 -0.5878 -0.0089
vn 0.6770 -0.6826 -0.2751
vn 0.8584 -0.4329 -0.2751
vn 0.7344 -0.5336 -0.4193
vn 0.8728 -0.2883 -0.3938
vn 0.8090 0.5878 -0.0089
vn 0.8584 0.4329 -0.2751
vn 0.6770 0.6826 -0.2751
vn 0.7344 0.5336 -0.4193
vn 0.5439 0.7410 -0.3938
vn -0.3090 0.9510 -0.0089
vn -0.1465 0.9502 -0.2751
vn -0.4400 0.8548 -0.2751
vn -0.2805 0.8634 -0.4193
vn -0.5366 0.7462 -0.3938
vn -0.9999 0.0000 -0.0089
vn -0.9489 0.1543 -0.2751
vn -0.9489 -0.1543 -0.2751
vn -0.9078 0.0000 -0.4193
vn -0.8755 -0.2798 -0.3938
s 1
f 1/1/1 17/2/2 29/3/3
f 2/4/4 14/5/5 35/6/6
f 3/7/7 20/8/8 41/9/9
f 4/10/10 23/11/11 47/12/12
f 5/13/13 26/14/14 53/15/15
f 1/1/1 29/3/3 36/16/16
f 2/4/4 35/6/6 42/17/17
f 3/7/7 41/9/9 48/18/18
f 4/10/10 47/12/12 54/19/19
f 5/13/13 53/15/15 30/20/20
f 6/21/21 59/22/22 74/23/23
f 7/24/24 62/25/25 80/26/26
f 8/27/27 65/28/28 83/29/29
f 9/30/30 68/31/31 86/32/32
f 10/33/33 71/34/34 75/35/35
f 77/36/36 84/37/37 11/38/38
f 76/39/39 87/40/40 77/36/36
f 75/35/35 88/41/41 76/39/39
f 77/36/36 87/40/40 84/37/37
f 87/40/40 85/42/42 84/37/37
f 76/39/39 88/41/41 87/40/40
f 88/41/41 89/43/43 87/40/40
f 87/40/40 89/43/43 85/42/42
f 89/43/43 86/32/32 85/42/42
f 75/35/35 71/34/34 88/41/41
f 71/34/34 70/44/44 88/41/41
f 88/41/41 70/44/44 89/43/43
f 70/44/44 69/45/45 89/43/43
f 89/43/43 69/45/45 86/32/32
f 69/45/45 9/30/30 86/32/32
f 84/37/37 81/46/46 11/38/38
f 85/42/42 90/47/47 84/37/37
f 86/32/32 91/48/48 85/42/42
f 84/37/37 90/47/47 81/46/46
f 90/47/47 82/49/49 81/46/46
f 85/42/42 91/48/48 90/47/47
f 91/48/48 92/50/50 90/47/47
f 90/47/47 92/50/50 82/49/49
f 92/50/50 83/29/29 82/49/49
f 86/32/32 68/31/31 91/48/48
f 68/31/31 67/51/51 91/48/48
f 91/48/48 67/51/51 92/50/50
f 67/51/51 66/52/52 92/50/50
f 92/50/50 66/52/52 83/29/29
f 66/52/52 8/27/27 83/29/29
f 81/46/46 78/53/53 11/38/38
f 82/49/49 93/54/54 81/46/46
f 83/29/29 94/55/55 82/49/49
f 81/46/46 93/54/54 78/53/53
f 93/54/54 79/56/56 78/53/53
f 82/49/49 94/55/55 93/54/54
f 94/55/55 95/57/57 93/54/54
f 93/54/54 95/57/57 79/56/56
f 95/57/57 80/26/26 79/56/56
f 83/29/29 65/28/28 94/55/55
f 65/28/28 64/58/58 94/55/55
f 94/55/55 64/58/58 95/57/57
f 64/58/58 63/59/59 95/57/57
f 95/57/57 63/59/59 80/26/26
f 63/59/59 7/24/24 80/26/26
f 78/53/53 72/60/60 11/38/38
f 79/56/56 96/61/61 78/53/53
f 80/26/26 97/62/62 79/56/56
f 78/53/53 96/61/61 72/60/60
f 96/61/61 73/63/63 72/60/60
f 79/56/56 97/62/62 96/61/61
f 97/62/62 98/64/64 96/61/61
f 96/61/61 98/64/64 73/63/63
f 98/64/64 74/23/23 73/63/63
f 80/26/26 62/25/25 97/62/62
f 62/25/25 61/65/65 97/62/62
f 97/62/62 61/65/65 98/64/64
f 61/65/65 60/66/66 98/64/64
f 98/64/64 60/66/66 74/23/23
f 60/66/66 6/21/21 74/23/23
f 72/60/60 77/36/36 11/38/38
f 73/63/63 99/67/67 72/60/60
f 74/23/23 100/68/68 73/63/63
f 72/60/60 99/67/67 77/36/36
f 99/67/67 76/39/39 77/36/36
f 73/63/63 100/68/68 99/67/67
f 100/68/68 101/69/69 99/67/67
f 99/67/67 101/69/69 76/39/39
f 101/69/69 75/35/35 76/39/39
f 74/23/23 59/22/22 100/68/68
f 59/22/22 58/70/70 100/68/68
f 100/68/68 58/70/70 101/69/69
f 58/70/70 57/71/71 101/69/69
f 101/69/69 57/71/71 75/35/35
f 57/71/71 10/33/33 75/35/35
f 32/72/72 71/34/34 10/33/33
f 31/73/73 102/74/74 32/72/72
f 30/20/20 103/75/75 31/73/73
f 32/72/72 102/74/74 71/34/34
f 102/74/74 70/44/44 71/34/34
f 31/73/73 103/75/75 102/74/74
f 103/75/75 104/76/76 102/74/74
f 102/74/74 104/76/76 70/44/44
f 104/76/76 69/45/45 70/44/44
f 30/20/20 53/15/15 103/75/75
f 53/15/15 52/77/77 103/75/75
f 103/75/75 52/77/77 104/76/76
f 52/77/77 51/78/78 104/76/76
f 104/76/76 51/78/78 69/45/45
f 51/78/78 9/30/30 69/45/45
f 56/79/79 68/31/31 9/30/30
f 55/80/80 105/81/81 56/79/79
f 54/19/19 106/82/82 55/80/80
f 56/79/79 105/81/81 68/31/31
f 105/81/81 67/51/51 68/31/31
f 55/80/80 106/82/82 105/81/81
f 106/82/82 107/83/83 105/81/81
f 105/81/81 107/83/83 67/51/51
f 107/83/83 66/52/52 67/51/51
f 54/19/19 47/12/12 106/82/82
f 47/12/12 46/84/84 106/82/82
f 106/82/82 46/84/84 107/83/83
f 46/84/84 45/85/85 107/83/83
f 107/83/83 45/85/85 66/52/52
f 45/85/85 8/27/27 66/52/52
f 50/86/86 65/28/28 8/27/27
f 49/87/87 108/88/88 50/86/86
f 48/18/18 109/89/89 49/87/87
f 50/86/86 108/88/88 65/28/28
f 108/88/88 64/58/58 65/28/28
f 49/87/87 109/89/89 108/88/88
f 109/89/89 110/90/90 108/88/88
f 108/88/88 110/90/90 64/58/58
f 110/90/90 63/59/59 64/58/58
f 48/18/18 41/9/9 109/89/89
f 41/9/9 40/91/91 109/89/89
f 109/89/89 40/91/91 110/90/90
f 40/91/91 39/92/92 110/90/90
f 110/90/90 39/92/92 63/59/59
f 39/92/92 7/24/24 63/59/59
f 44/93/93 62/25/25 7/24/24
f 43/94/94 111/95/95 44/93/93
f 42/17/17 112/96/96 43/94/94
f 44/93/93 111/95/95 62/25/25
f 111/95/95 61/65/65 62/25/25
f 43/94/94 112/96/96 111/95/95
f 112/96/96 113/97/97 111/95/95
f 111/95/95 113/97/97 61/65/65
f 113/97/97 60/66/66 61/65/65
f 42/17/17 35/6/6 112/96/96
f 35/6/6 34/98/98 112/96/96
f 112/96/96 34/98/98 113/97/97
f 34/98/98 33/99/99 113/97/97
f 113/97/97 33/99/99 60/66/66
f 33/99/99 6/21/21 60/66/66
f 38/100/100 59/22/22 6/21/21
f 37/101/101 114/102/102 38/100/100
f 36/16/16 115/103/103 37/101/101
f 38/100/100 114/102/102 59/22/22
f 114/102/102 58/70/70 59/22/22
f 37/101/101 115/103/103 114/102/102
f 115/103/103 116/104/104 114/102/102
f 114/102/102 116/104/104 58/70/70
f 116/104/104 57/71/71 58/70/70
f 36/16/16 29/3/3 115/103/103
f 29/3/3 28/105/105 115/103/103
f 115/103/103 28/105/105 116/104/104
f 28/105/105 27/106/106 116/104/104
f 116/104/104 27/106/106 57/71/71
f 27/106/106 10/33/33 57/71/71
f 51/78/78 56/79/79 9/30/30
f 52/77/77 117/107/107 51/78/78
f 53/15/15 118/108/108 52/77/77
f 51/78/78 117/107/107 56/79/79
f 117/107/107 55/80/80 56/79/79
f 52/77/77 118/108/108 117/107/107
f 118/108/108 119/109/109 117/107/107
f 117/107/107 119/109/109 55/80/80
f 119/109/109 54/19/19 55/80/80
f 53/15/15 26/14/14 118/108/108
f 26/14/14 25/110/110 118/108/108
f 118/108/108 25/110/110 119/109/109
f 25/110/110 24/111/111 119/109/109
f 119/109/109 24/111/111 54/19/19
f 24/111/111 4/10/10 54/19/19
f 45/85/85 50/86/86 8/27/27
f 46/84/84 120/112/112 45/85/85
f 47/12/12 121/113/113 46/84/84
f 45/85/85 120/112/112 50/86/86
f 120/112/112 49/87/87 50/86/86
f 46/84/84 121/113/113 120/112/112
f 121/113/113 122/114/114 120/112/112
f 120/112/112 122/114/114 49/87/87
f 122/114/114 48/18/18 49/87/87
f 47/12/12 23/11/11 121/113/113
f 23/11/11 22/115/115 121/113/113
f 121/113/113 22/115/115 122/114/114
f 22/115/115 21/116/116 122/114/114
f 122/114/114 21/116/116 48/18/18
f 21/116/116 3/7/7 48/18/18
f 39/92/92 44/93/93 7/24/24
f 40/91/91 123/117/117 39/92/92
f 41/9/9 124/118/118 40/91/91
f 39/92/92 123/117/117 44/93/93
f 123/117/117 43/94/94 44/93/93
f 40/91/91 124/118/118 123/117/117
f 124/118/118 125/119/119 123/117/117
f 123/117/117 125/119/119 43/94/94
f 125/119/119 42/17/17 43/94/94
f 41/9/9 20/8/8 124/118/118
f 20/8/8 19/120/120 124/118/118
f 124/118/118 19/120/120 125/119/119
f 19/120/120 18/121/121 125/119/119
f 125/119/119 18/121/121 42/17/17
f 18/121/121 2/4/4 42/17/17
f 33/99/99 38/100/100 6/21/21
f 34/98/98 126/122/122 33/99/99
f 35/6/6 127/123/123 34/98/98
f 33/99/99 126/122/122 38/100/100
f 126/122/122 37/101/101 38/100/100
f 34/98/98 127/123/123 126/122/122
f 127/123/123 128/124/124 126/122/122
f 126/122/122 128/124/124 37/101/101
f 128/124/124 36/16/16 37/101/101
f 35/6/6 14/5/5 127/123/123
f 14/5/5 13/125/125 127/123/123
f 127/123/123 13/125/125 128/124/124
f 13/125/125 12/126/126 128/124/124
f 128/124/124 12/126/126 36/16/16
f 12/126/126 1/1/1 36/16/16
f 27/106/106 32/72/72 10/33/33
f 28/105/105 129/127/127 27/106/106
f 29/3/3 130/128/128 28/105/105
f 27/106/106 129/127/127 32/72/72
f 129/127/127 31/73/73 32/72/72
f 28/105/105 130/128/128 129/127/127
f 130/128/128 131/129/129 129/127/127
f 129/127/127 131/129/129 31/73/73
f 131/129/129 30/20/20 31/73/73
f 29/3/3 17/2/2 130/128/128
f 17/2/2 16/130/130 130/128/128
f 130/128/128 16/130/130 131/129/129
f 16/130/130 15/131/131 131/129/129
f 131/129/129 15/131/131 30/20/20
f 15/131/131 5/13/13 30/20/20
